{
    "asset" : {
        "generator" : "Khronos Blender glTF 2.0 I/O",
        "version" : "2.0"
    },
    "scene" : 0,
    "scenes" : [
        {
            "name" : "Scene",
            "nodes" : [
                0,
                1,
                2,
                3
            ]
        }
    ],
    "nodes" : [
        {
            "mesh" : 0,
            "name" : "Cube",
            "rotation" : [
                -0.04485543444752693,
                -0.0037697446532547474,
                -0.06645956635475159,
                0.9967732429504395
            ],
            "scale" : [
                0.3114619851112366,
                0.063660629093647,
                0.20369784533977509
            ],
            "translation" : [
                -0.0008193068206310272,
                0.04223722219467163,
                0.010007770732045174
            ]
        },
        {
            "name" : "Light",
            "rotation" : [
                0.16907575726509094,
                0.7558803558349609,
                -0.27217137813568115,
                0.570947527885437
            ],
            "translation" : [
                1.2785940170288086,
                3.205047607421875,
                -1.1829102039337158
            ]
        },
        {
            "name" : "Camera",
            "rotation" : [
                0.483536034822464,
                0.33687159419059753,
                -0.20870360732078552,
                0.7804827094078064
            ],
            "translation" : [
                4.970282077789307,
                3.246961832046509,
                4.609203338623047
            ]
        },
        {
            "name" : "Light.001",
            "rotation" : [
                0.16907575726509094,
                0.7558803558349609,
                -0.27217137813568115,
                0.570947527885437
            ],
            "translation" : [
                -4.644742488861084,
                5.707686424255371,
                5.242000579833984
            ]
        }
    ],
    "materials" : [
        {
            "name" : "base",
            "pbrMetallicRoughness" : {}
        },
        {
            "name" : "Material.001",
            "pbrMetallicRoughness" : {
                "baseColorTexture" : {
                    "index" : 0,
                    "texCoord" : 0
                },
                "metallicFactor" : 0,
                "roughnessFactor" : 0.5
            }
        }
    ],
    "meshes" : [
        {
            "name" : "Cube",
            "primitives" : [
                {
                    "attributes" : {
                        "POSITION" : 0,
                        "NORMAL" : 1,
                        "TEXCOORD_0" : 2
                    },
                    "indices" : 3,
                    "material" : 0
                },
                {
                    "attributes" : {
                        "POSITION" : 4,
                        "NORMAL" : 5,
                        "TEXCOORD_0" : 6
                    },
                    "indices" : 7,
                    "material" : 1
                }
            ]
        }
    ],
    "textures" : [
        {
            "source" : 0
        }
    ],
    "images" : [
        {
            "mimeType" : "image/jpeg",
            "name" : "textura_chips",
            "uri" : "textura_chips.jpg"
        }
    ],
    "accessors" : [
        {
            "bufferView" : 0,
            "componentType" : 5126,
            "count" : 428,
            "max" : [
                1.0636703968048096,
                0.3947597146034241,
                1.1676685810089111
            ],
            "min" : [
                -1.0738790035247803,
                -0.604525625705719,
                -1.761457920074463
            ],
            "type" : "VEC3"
        },
        {
            "bufferView" : 1,
            "componentType" : 5126,
            "count" : 428,
            "type" : "VEC3"
        },
        {
            "bufferView" : 2,
            "componentType" : 5126,
            "count" : 428,
            "type" : "VEC2"
        },
        {
            "bufferView" : 3,
            "componentType" : 5123,
            "count" : 642,
            "type" : "SCALAR"
        },
        {
            "bufferView" : 4,
            "componentType" : 5126,
            "count" : 232,
            "max" : [
                1.0003461837768555,
                0.7791904807090759,
                1.1676685810089111
            ],
            "min" : [
                -1.0260018110275269,
                -0.85798579454422,
                -1.7178680896759033
            ],
            "type" : "VEC3"
        },
        {
            "bufferView" : 5,
            "componentType" : 5126,
            "count" : 232,
            "type" : "VEC3"
        },
        {
            "bufferView" : 6,
            "componentType" : 5126,
            "count" : 232,
            "type" : "VEC2"
        },
        {
            "bufferView" : 7,
            "componentType" : 5123,
            "count" : 348,
            "type" : "SCALAR"
        }
    ],
    "bufferViews" : [
        {
            "buffer" : 0,
            "byteLength" : 5136,
            "byteOffset" : 0
        },
        {
            "buffer" : 0,
            "byteLength" : 5136,
            "byteOffset" : 5136
        },
        {
            "buffer" : 0,
            "byteLength" : 3424,
            "byteOffset" : 10272
        },
        {
            "buffer" : 0,
            "byteLength" : 1284,
            "byteOffset" : 13696
        },
        {
            "buffer" : 0,
            "byteLength" : 2784,
            "byteOffset" : 14980
        },
        {
            "buffer" : 0,
            "byteLength" : 2784,
            "byteOffset" : 17764
        },
        {
            "buffer" : 0,
            "byteLength" : 1856,
            "byteOffset" : 20548
        },
        {
            "buffer" : 0,
            "byteLength" : 696,
            "byteOffset" : 22404
        }
    ],
    "buffers" : [
        {
            "byteLength" : 23100,
            "uri" : "chips-yellow.bin"
        }
    ]
}
