{
    "asset" : {
        "generator" : "Khronos glTF Blender I/O v0.9.24",
        "version" : "2.0"
    },
    "scene" : 0,
    "scenes" : [
        {
            "name" : "Scene",
            "nodes" : [
                0,
                1,
                2,
                3,
                4
            ]
        }
    ],
    "nodes" : [
        {
            "name" : "Light",
            "rotation" : [
                0.16907575726509094,
                0.7558803558349609,
                -0.27217137813568115,
                0.570947527885437
            ],
            "translation" : [
                7.297136306762695,
                7.927880764007568,
                -8.444974899291992
            ]
        },
        {
            "name" : "Camera",
            "rotation" : [
                0.4174051582813263,
                0.3667796850204468,
                -0.16373705863952637,
                0.815129280090332
            ],
            "translation" : [
                13.254899024963379,
                12.289857864379883,
                13.172035217285156
            ]
        },
        {
            "mesh" : 0,
            "name" : "Grid.000",
            "scale" : [
                5.87909460067749,
                5.87909460067749,
                5.87909460067749
            ]
        },
        {
            "mesh" : 1,
            "name" : "Grid.000_collider",
            "scale" : [
                5.87909460067749,
                5.87909460067749,
                5.87909460067749
            ]
        },
        {
            "name" : "Light.001",
            "rotation" : [
                0.16907575726509094,
                0.7558803558349609,
                -0.27217137813568115,
                0.570947527885437
            ],
            "translation" : [
                -5.932690620422363,
                7.927880764007568,
                8.30967903137207
            ]
        }
    ],
    "materials" : [
        {
            "doubleSided" : true,
            "name" : "Material",
            "pbrMetallicRoughness" : {
                "baseColorTexture" : {
                    "index" : 0,
                    "texCoord" : 0
                },
                "metallicFactor" : 0,
                "roughnessFactor" : 0.4000000059604645
            }
        }
    ],
    "meshes" : [
        {
            "name" : "Grid",
            "primitives" : [
                {
                    "attributes" : {
                        "POSITION" : 0,
                        "NORMAL" : 1,
                        "TEXCOORD_0" : 2
                    },
                    "indices" : 3,
                    "material" : 0
                }
            ]
        },
        {
            "name" : "Grid.002",
            "primitives" : [
                {
                    "attributes" : {
                        "POSITION" : 4,
                        "NORMAL" : 5,
                        "TEXCOORD_0" : 6
                    },
                    "indices" : 7
                }
            ]
        }
    ],
    "textures" : [
        {
            "source" : 0
        }
    ],
    "images" : [
        {
            "mimeType" : "image/jpeg",
            "name" : "ecogamesdistrict",
            "uri" : "ecogamesdistrict.jpg"
        }
    ],
    "accessors" : [
        {
            "bufferView" : 0,
            "componentType" : 5126,
            "count" : 3600,
            "max" : [
                1,
                0.2719411849975586,
                1
            ],
            "min" : [
                -1,
                0,
                -1
            ],
            "type" : "VEC3"
        },
        {
            "bufferView" : 1,
            "componentType" : 5126,
            "count" : 3600,
            "type" : "VEC3"
        },
        {
            "bufferView" : 2,
            "componentType" : 5126,
            "count" : 3600,
            "type" : "VEC2"
        },
        {
            "bufferView" : 3,
            "componentType" : 5123,
            "count" : 5400,
            "type" : "SCALAR"
        },
        {
            "bufferView" : 4,
            "componentType" : 5126,
            "count" : 1444,
            "max" : [
                1,
                0,
                1
            ],
            "min" : [
                -1,
                0,
                -1
            ],
            "type" : "VEC3"
        },
        {
            "bufferView" : 5,
            "componentType" : 5126,
            "count" : 1444,
            "type" : "VEC3"
        },
        {
            "bufferView" : 6,
            "componentType" : 5126,
            "count" : 1444,
            "type" : "VEC2"
        },
        {
            "bufferView" : 7,
            "componentType" : 5123,
            "count" : 5400,
            "type" : "SCALAR"
        }
    ],
    "bufferViews" : [
        {
            "buffer" : 0,
            "byteLength" : 43200,
            "byteOffset" : 0
        },
        {
            "buffer" : 0,
            "byteLength" : 43200,
            "byteOffset" : 43200
        },
        {
            "buffer" : 0,
            "byteLength" : 28800,
            "byteOffset" : 86400
        },
        {
            "buffer" : 0,
            "byteLength" : 10800,
            "byteOffset" : 115200
        },
        {
            "buffer" : 0,
            "byteLength" : 17328,
            "byteOffset" : 126000
        },
        {
            "buffer" : 0,
            "byteLength" : 17328,
            "byteOffset" : 143328
        },
        {
            "buffer" : 0,
            "byteLength" : 11552,
            "byteOffset" : 160656
        },
        {
            "buffer" : 0,
            "byteLength" : 10800,
            "byteOffset" : 172208
        }
    ],
    "buffers" : [
        {
            "byteLength" : 183008,
            "uri" : "terrain-high-res.bin"
        }
    ]
}
