{
    "asset" : {
        "generator" : "Khronos Blender glTF 2.0 I/O",
        "version" : "2.0"
    },
    "scene" : 0,
    "scenes" : [
        {
            "name" : "Scene",
            "nodes" : [
                0,
                1,
                2,
                3,
                4
            ]
        }
    ],
    "nodes" : [
        {
            "mesh" : 0,
            "name" : "Cylinder",
            "translation" : [
                0,
                1,
                0
            ]
        },
        {
            "mesh" : 1,
            "name" : "Cylinder.001",
            "scale" : [
                1.2403029203414917,
                0.13480311632156372,
                -1.2014057636260986
            ],
            "translation" : [
                2.176480531692505,
                1.3262218236923218,
                2.7669262886047363
            ]
        },
        {
            "mesh" : 2,
            "name" : "Cylinder.002",
            "scale" : [
                1.2403029203414917,
                0.13480311632156372,
                -1.2014057636260986
            ],
            "translation" : [
                2.176480531692505,
                1.3262218236923218,
                -2.779024600982666
            ]
        },
        {
            "mesh" : 3,
            "name" : "Cylinder.003",
            "scale" : [
                1.2403029203414917,
                0.13480311632156372,
                -1.2014057636260986
            ],
            "translation" : [
                -2.193650960922241,
                1.3262218236923218,
                -2.779024600982666
            ]
        },
        {
            "mesh" : 4,
            "name" : "Cylinder.004",
            "scale" : [
                1.2403029203414917,
                0.13480311632156372,
                -1.2014057636260986
            ],
            "translation" : [
                -2.193650960922241,
                1.3262218236923218,
                2.7669262886047363
            ]
        }
    ],
    "meshes" : [
        {
            "name" : "Cylinder.006",
            "primitives" : [
                {
                    "attributes" : {
                        "POSITION" : 0,
                        "NORMAL" : 1,
                        "TEXCOORD_0" : 2
                    },
                    "indices" : 3
                }
            ]
        },
        {
            "name" : "Cylinder.006",
            "primitives" : [
                {
                    "attributes" : {
                        "POSITION" : 4,
                        "NORMAL" : 5,
                        "TEXCOORD_0" : 6,
                        "TEXCOORD_1" : 7,
                        "TEXCOORD_2" : 8
                    },
                    "indices" : 9
                }
            ]
        },
        {
            "name" : "Cylinder.006",
            "primitives" : [
                {
                    "attributes" : {
                        "POSITION" : 10,
                        "NORMAL" : 11,
                        "TEXCOORD_0" : 12,
                        "TEXCOORD_1" : 13,
                        "TEXCOORD_2" : 14
                    },
                    "indices" : 9
                }
            ]
        },
        {
            "name" : "Cylinder.006",
            "primitives" : [
                {
                    "attributes" : {
                        "POSITION" : 15,
                        "NORMAL" : 16,
                        "TEXCOORD_0" : 17,
                        "TEXCOORD_1" : 18,
                        "TEXCOORD_2" : 19
                    },
                    "indices" : 9
                }
            ]
        },
        {
            "name" : "Cylinder.006",
            "primitives" : [
                {
                    "attributes" : {
                        "POSITION" : 20,
                        "NORMAL" : 21,
                        "TEXCOORD_0" : 22,
                        "TEXCOORD_1" : 23,
                        "TEXCOORD_2" : 24
                    },
                    "indices" : 9
                }
            ]
        }
    ],
    "accessors" : [
        {
            "bufferView" : 0,
            "componentType" : 5126,
            "count" : 1114,
            "max" : [
                1.662520170211792,
                1.1008836030960083,
                2.0061118602752686
            ],
            "min" : [
                -1.6625194549560547,
                -2.798536777496338,
                -2.0061120986938477
            ],
            "type" : "VEC3"
        },
        {
            "bufferView" : 1,
            "componentType" : 5126,
            "count" : 1114,
            "type" : "VEC3"
        },
        {
            "bufferView" : 2,
            "componentType" : 5126,
            "count" : 1114,
            "type" : "VEC2"
        },
        {
            "bufferView" : 3,
            "componentType" : 5123,
            "count" : 1698,
            "type" : "SCALAR"
        },
        {
            "bufferView" : 4,
            "componentType" : 5126,
            "count" : 330,
            "max" : [
                0.9510565400123596,
                1.0000004768371582,
                1
            ],
            "min" : [
                -0.9510564804077148,
                -1.000000238418579,
                -1
            ],
            "type" : "VEC3"
        },
        {
            "bufferView" : 5,
            "componentType" : 5126,
            "count" : 330,
            "type" : "VEC3"
        },
        {
            "bufferView" : 6,
            "componentType" : 5126,
            "count" : 330,
            "type" : "VEC2"
        },
        {
            "bufferView" : 7,
            "componentType" : 5126,
            "count" : 330,
            "type" : "VEC2"
        },
        {
            "bufferView" : 8,
            "componentType" : 5126,
            "count" : 330,
            "type" : "VEC2"
        },
        {
            "bufferView" : 9,
            "componentType" : 5123,
            "count" : 630,
            "type" : "SCALAR"
        },
        {
            "bufferView" : 10,
            "componentType" : 5126,
            "count" : 330,
            "max" : [
                0.9510565400123596,
                1.0000004768371582,
                1
            ],
            "min" : [
                -0.9510564804077148,
                -1.000000238418579,
                -1
            ],
            "type" : "VEC3"
        },
        {
            "bufferView" : 11,
            "componentType" : 5126,
            "count" : 330,
            "type" : "VEC3"
        },
        {
            "bufferView" : 12,
            "componentType" : 5126,
            "count" : 330,
            "type" : "VEC2"
        },
        {
            "bufferView" : 13,
            "componentType" : 5126,
            "count" : 330,
            "type" : "VEC2"
        },
        {
            "bufferView" : 14,
            "componentType" : 5126,
            "count" : 330,
            "type" : "VEC2"
        },
        {
            "bufferView" : 15,
            "componentType" : 5126,
            "count" : 330,
            "max" : [
                0.9510565400123596,
                1.0000004768371582,
                1
            ],
            "min" : [
                -0.9510564804077148,
                -1.000000238418579,
                -1
            ],
            "type" : "VEC3"
        },
        {
            "bufferView" : 16,
            "componentType" : 5126,
            "count" : 330,
            "type" : "VEC3"
        },
        {
            "bufferView" : 17,
            "componentType" : 5126,
            "count" : 330,
            "type" : "VEC2"
        },
        {
            "bufferView" : 18,
            "componentType" : 5126,
            "count" : 330,
            "type" : "VEC2"
        },
        {
            "bufferView" : 19,
            "componentType" : 5126,
            "count" : 330,
            "type" : "VEC2"
        },
        {
            "bufferView" : 20,
            "componentType" : 5126,
            "count" : 330,
            "max" : [
                0.9510565400123596,
                1.0000004768371582,
                1
            ],
            "min" : [
                -0.9510564804077148,
                -1.000000238418579,
                -1
            ],
            "type" : "VEC3"
        },
        {
            "bufferView" : 21,
            "componentType" : 5126,
            "count" : 330,
            "type" : "VEC3"
        },
        {
            "bufferView" : 22,
            "componentType" : 5126,
            "count" : 330,
            "type" : "VEC2"
        },
        {
            "bufferView" : 23,
            "componentType" : 5126,
            "count" : 330,
            "type" : "VEC2"
        },
        {
            "bufferView" : 24,
            "componentType" : 5126,
            "count" : 330,
            "type" : "VEC2"
        }
    ],
    "bufferViews" : [
        {
            "buffer" : 0,
            "byteLength" : 13368,
            "byteOffset" : 0
        },
        {
            "buffer" : 0,
            "byteLength" : 13368,
            "byteOffset" : 13368
        },
        {
            "buffer" : 0,
            "byteLength" : 8912,
            "byteOffset" : 26736
        },
        {
            "buffer" : 0,
            "byteLength" : 3396,
            "byteOffset" : 35648
        },
        {
            "buffer" : 0,
            "byteLength" : 3960,
            "byteOffset" : 39044
        },
        {
            "buffer" : 0,
            "byteLength" : 3960,
            "byteOffset" : 43004
        },
        {
            "buffer" : 0,
            "byteLength" : 2640,
            "byteOffset" : 46964
        },
        {
            "buffer" : 0,
            "byteLength" : 2640,
            "byteOffset" : 49604
        },
        {
            "buffer" : 0,
            "byteLength" : 2640,
            "byteOffset" : 52244
        },
        {
            "buffer" : 0,
            "byteLength" : 1260,
            "byteOffset" : 54884
        },
        {
            "buffer" : 0,
            "byteLength" : 3960,
            "byteOffset" : 56144
        },
        {
            "buffer" : 0,
            "byteLength" : 3960,
            "byteOffset" : 60104
        },
        {
            "buffer" : 0,
            "byteLength" : 2640,
            "byteOffset" : 64064
        },
        {
            "buffer" : 0,
            "byteLength" : 2640,
            "byteOffset" : 66704
        },
        {
            "buffer" : 0,
            "byteLength" : 2640,
            "byteOffset" : 69344
        },
        {
            "buffer" : 0,
            "byteLength" : 3960,
            "byteOffset" : 71984
        },
        {
            "buffer" : 0,
            "byteLength" : 3960,
            "byteOffset" : 75944
        },
        {
            "buffer" : 0,
            "byteLength" : 2640,
            "byteOffset" : 79904
        },
        {
            "buffer" : 0,
            "byteLength" : 2640,
            "byteOffset" : 82544
        },
        {
            "buffer" : 0,
            "byteLength" : 2640,
            "byteOffset" : 85184
        },
        {
            "buffer" : 0,
            "byteLength" : 3960,
            "byteOffset" : 87824
        },
        {
            "buffer" : 0,
            "byteLength" : 3960,
            "byteOffset" : 91784
        },
        {
            "buffer" : 0,
            "byteLength" : 2640,
            "byteOffset" : 95744
        },
        {
            "buffer" : 0,
            "byteLength" : 2640,
            "byteOffset" : 98384
        },
        {
            "buffer" : 0,
            "byteLength" : 2640,
            "byteOffset" : 101024
        }
    ],
    "buffers" : [
        {
            "byteLength" : 103664,
            "uri" : "data:application/octet-stream;base64,"
        }
    ]
}
