{
    "asset" : {
        "generator" : "Khronos glTF Blender I/O v0.9.24",
        "version" : "2.0"
    },
    "scene" : 0,
    "scenes" : [
        {
            "name" : "Scene",
            "nodes" : [
                0,
                1,
                2,
                3,
                4,
                5,
                6,
                7,
                8,
                9
            ]
        }
    ],
    "nodes" : [
        {
            "mesh" : 0,
            "name" : "Rock_05",
            "translation" : [
                3.423311233520508,
                0.3796825408935547,
                -27.623886108398438
            ]
        },
        {
            "mesh" : 1,
            "name" : "Rock_06",
            "translation" : [
                34.511566162109375,
                0.3796825408935547,
                0.3530426025390625
            ]
        },
        {
            "mesh" : 2,
            "name" : "Rock_07",
            "translation" : [
                39.896270751953125,
                0.3796825408935547,
                -27.960739135742188
            ]
        },
        {
            "mesh" : 3,
            "name" : "Rock_03",
            "translation" : [
                -48.196868896484375,
                0.3796825408935547,
                -25.460189819335938
            ]
        },
        {
            "mesh" : 4,
            "name" : "Rock_04",
            "translation" : [
                -28.195219039916992,
                0.3796825408935547,
                4.1916656494140625
            ]
        },
        {
            "mesh" : 5,
            "name" : "Rock_08",
            "translation" : [
                77.27499389648438,
                0.3796825408935547,
                8.826034545898438
            ]
        },
        {
            "mesh" : 6,
            "name" : "Rock_02",
            "translation" : [
                -56.903656005859375,
                0.3796825408935547,
                -3.2010345458984375
            ]
        },
        {
            "mesh" : 7,
            "name" : "Rock_01",
            "translation" : [
                -69.02291870117188,
                0.3796825408935547,
                -17.777511596679688
            ]
        },
        {
            "name" : "Sun",
            "translation" : [
                1.2000656127929688,
                11.123638153076172,
                1.8158035278320312
            ]
        },
        {
            "name" : "Camera",
            "rotation" : [
                -0.21565434336662292,
                0.738865077495575,
                -0.5754492878913879,
                -0.276459276676178
            ],
            "translation" : [
                -7.018118381500244,
                3.8632290363311768,
                -9.747823715209961
            ]
        }
    ],
    "materials" : [
        {
            "doubleSided" : true,
            "name" : "02 - Defagult",
            "pbrMetallicRoughness" : {
                "baseColorTexture" : {
                    "index" : 0,
                    "texCoord" : 0
                },
                "metallicFactor" : 1,
                "roughnessFactor" : 0.858578622341156
            }
        }
    ],
    "meshes" : [
        {
            "name" : "Mesh.013",
            "primitives" : [
                {
                    "attributes" : {
                        "POSITION" : 0,
                        "NORMAL" : 1,
                        "TEXCOORD_0" : 2
                    },
                    "indices" : 3,
                    "material" : 0
                }
            ]
        },
        {
            "name" : "Mesh.014",
            "primitives" : [
                {
                    "attributes" : {
                        "POSITION" : 4,
                        "NORMAL" : 5,
                        "TEXCOORD_0" : 6
                    },
                    "indices" : 7,
                    "material" : 0
                }
            ]
        },
        {
            "name" : "Mesh.015",
            "primitives" : [
                {
                    "attributes" : {
                        "POSITION" : 8,
                        "NORMAL" : 9,
                        "TEXCOORD_0" : 10
                    },
                    "indices" : 11,
                    "material" : 0
                }
            ]
        },
        {
            "name" : "Mesh.016",
            "primitives" : [
                {
                    "attributes" : {
                        "POSITION" : 12,
                        "NORMAL" : 13,
                        "TEXCOORD_0" : 14
                    },
                    "indices" : 15,
                    "material" : 0
                }
            ]
        },
        {
            "name" : "Mesh.017",
            "primitives" : [
                {
                    "attributes" : {
                        "POSITION" : 16,
                        "NORMAL" : 17,
                        "TEXCOORD_0" : 18
                    },
                    "indices" : 19,
                    "material" : 0
                }
            ]
        },
        {
            "name" : "Mesh.018",
            "primitives" : [
                {
                    "attributes" : {
                        "POSITION" : 20,
                        "NORMAL" : 21,
                        "TEXCOORD_0" : 22
                    },
                    "indices" : 23,
                    "material" : 0
                }
            ]
        },
        {
            "name" : "Mesh.019",
            "primitives" : [
                {
                    "attributes" : {
                        "POSITION" : 24,
                        "NORMAL" : 25,
                        "TEXCOORD_0" : 26
                    },
                    "indices" : 27,
                    "material" : 0
                }
            ]
        },
        {
            "name" : "Mesh.020",
            "primitives" : [
                {
                    "attributes" : {
                        "POSITION" : 28,
                        "NORMAL" : 29,
                        "TEXCOORD_0" : 30
                    },
                    "indices" : 27,
                    "material" : 0
                }
            ]
        }
    ],
    "textures" : [
        {
            "source" : 0
        }
    ],
    "images" : [
        {
            "mimeType" : "image/png",
            "name" : "Stone",
            "uri" : "Stone.png"
        }
    ],
    "accessors" : [
        {
            "bufferView" : 0,
            "componentType" : 5126,
            "count" : 48,
            "max" : [
                23.68134880065918,
                18.150026321411133,
                19.27291488647461
            ],
            "min" : [
                -24.507221221923828,
                0.18776074051856995,
                -19.961719512939453
            ],
            "type" : "VEC3"
        },
        {
            "bufferView" : 1,
            "componentType" : 5126,
            "count" : 48,
            "type" : "VEC3"
        },
        {
            "bufferView" : 2,
            "componentType" : 5126,
            "count" : 48,
            "type" : "VEC2"
        },
        {
            "bufferView" : 3,
            "componentType" : 5123,
            "count" : 240,
            "type" : "SCALAR"
        },
        {
            "bufferView" : 4,
            "componentType" : 5126,
            "count" : 48,
            "max" : [
                23.346696853637695,
                11.955390930175781,
                13.209014892578125
            ],
            "min" : [
                -19.226001739501953,
                0.12665046751499176,
                -18.330604553222656
            ],
            "type" : "VEC3"
        },
        {
            "bufferView" : 5,
            "componentType" : 5126,
            "count" : 48,
            "type" : "VEC3"
        },
        {
            "bufferView" : 6,
            "componentType" : 5126,
            "count" : 48,
            "type" : "VEC2"
        },
        {
            "bufferView" : 7,
            "componentType" : 5123,
            "count" : 240,
            "type" : "SCALAR"
        },
        {
            "bufferView" : 8,
            "componentType" : 5126,
            "count" : 48,
            "max" : [
                10.420520782470703,
                11.806682586669922,
                8.522348403930664
            ],
            "min" : [
                -11.60106086730957,
                0.12845461070537567,
                -9.483612060546875
            ],
            "type" : "VEC3"
        },
        {
            "bufferView" : 9,
            "componentType" : 5126,
            "count" : 48,
            "type" : "VEC3"
        },
        {
            "bufferView" : 10,
            "componentType" : 5126,
            "count" : 48,
            "type" : "VEC2"
        },
        {
            "bufferView" : 11,
            "componentType" : 5123,
            "count" : 240,
            "type" : "SCALAR"
        },
        {
            "bufferView" : 12,
            "componentType" : 5126,
            "count" : 48,
            "max" : [
                14.617680549621582,
                29.36297035217285,
                13.485288619995117
            ],
            "min" : [
                -14.641838073730469,
                0.3114489018917084,
                -13.86017894744873
            ],
            "type" : "VEC3"
        },
        {
            "bufferView" : 13,
            "componentType" : 5126,
            "count" : 48,
            "type" : "VEC3"
        },
        {
            "bufferView" : 14,
            "componentType" : 5126,
            "count" : 48,
            "type" : "VEC2"
        },
        {
            "bufferView" : 15,
            "componentType" : 5123,
            "count" : 240,
            "type" : "SCALAR"
        },
        {
            "bufferView" : 16,
            "componentType" : 5126,
            "count" : 48,
            "max" : [
                15.617128372192383,
                11.955390930175781,
                13.772197723388672
            ],
            "min" : [
                -11.870584487915039,
                0.12665045261383057,
                -18.330604553222656
            ],
            "type" : "VEC3"
        },
        {
            "bufferView" : 17,
            "componentType" : 5126,
            "count" : 48,
            "type" : "VEC3"
        },
        {
            "bufferView" : 18,
            "componentType" : 5126,
            "count" : 48,
            "type" : "VEC2"
        },
        {
            "bufferView" : 19,
            "componentType" : 5123,
            "count" : 240,
            "type" : "SCALAR"
        },
        {
            "bufferView" : 20,
            "componentType" : 5126,
            "count" : 48,
            "max" : [
                10.420520782470703,
                7.286906719207764,
                8.915267944335938
            ],
            "min" : [
                -11.60106086730957,
                0.07928024977445602,
                -9.483612060546875
            ],
            "type" : "VEC3"
        },
        {
            "bufferView" : 21,
            "componentType" : 5126,
            "count" : 48,
            "type" : "VEC3"
        },
        {
            "bufferView" : 22,
            "componentType" : 5126,
            "count" : 48,
            "type" : "VEC2"
        },
        {
            "bufferView" : 23,
            "componentType" : 5123,
            "count" : 240,
            "type" : "SCALAR"
        },
        {
            "bufferView" : 24,
            "componentType" : 5126,
            "count" : 48,
            "max" : [
                5.030393600463867,
                7.286906719207764,
                8.043415069580078
            ],
            "min" : [
                -11.60106086730957,
                0.07928024977445602,
                -7.629730224609375
            ],
            "type" : "VEC3"
        },
        {
            "bufferView" : 25,
            "componentType" : 5126,
            "count" : 48,
            "type" : "VEC3"
        },
        {
            "bufferView" : 26,
            "componentType" : 5126,
            "count" : 48,
            "type" : "VEC2"
        },
        {
            "bufferView" : 27,
            "componentType" : 5123,
            "count" : 240,
            "type" : "SCALAR"
        },
        {
            "bufferView" : 28,
            "componentType" : 5126,
            "count" : 48,
            "max" : [
                3.024954319000244,
                4.9130706787109375,
                4.960899353027344
            ],
            "min" : [
                -6.97613000869751,
                0.05345333740115166,
                -4.705752849578857
            ],
            "type" : "VEC3"
        },
        {
            "bufferView" : 29,
            "componentType" : 5126,
            "count" : 48,
            "type" : "VEC3"
        },
        {
            "bufferView" : 30,
            "componentType" : 5126,
            "count" : 48,
            "type" : "VEC2"
        }
    ],
    "bufferViews" : [
        {
            "buffer" : 0,
            "byteLength" : 576,
            "byteOffset" : 0
        },
        {
            "buffer" : 0,
            "byteLength" : 576,
            "byteOffset" : 576
        },
        {
            "buffer" : 0,
            "byteLength" : 384,
            "byteOffset" : 1152
        },
        {
            "buffer" : 0,
            "byteLength" : 480,
            "byteOffset" : 1536
        },
        {
            "buffer" : 0,
            "byteLength" : 576,
            "byteOffset" : 2016
        },
        {
            "buffer" : 0,
            "byteLength" : 576,
            "byteOffset" : 2592
        },
        {
            "buffer" : 0,
            "byteLength" : 384,
            "byteOffset" : 3168
        },
        {
            "buffer" : 0,
            "byteLength" : 480,
            "byteOffset" : 3552
        },
        {
            "buffer" : 0,
            "byteLength" : 576,
            "byteOffset" : 4032
        },
        {
            "buffer" : 0,
            "byteLength" : 576,
            "byteOffset" : 4608
        },
        {
            "buffer" : 0,
            "byteLength" : 384,
            "byteOffset" : 5184
        },
        {
            "buffer" : 0,
            "byteLength" : 480,
            "byteOffset" : 5568
        },
        {
            "buffer" : 0,
            "byteLength" : 576,
            "byteOffset" : 6048
        },
        {
            "buffer" : 0,
            "byteLength" : 576,
            "byteOffset" : 6624
        },
        {
            "buffer" : 0,
            "byteLength" : 384,
            "byteOffset" : 7200
        },
        {
            "buffer" : 0,
            "byteLength" : 480,
            "byteOffset" : 7584
        },
        {
            "buffer" : 0,
            "byteLength" : 576,
            "byteOffset" : 8064
        },
        {
            "buffer" : 0,
            "byteLength" : 576,
            "byteOffset" : 8640
        },
        {
            "buffer" : 0,
            "byteLength" : 384,
            "byteOffset" : 9216
        },
        {
            "buffer" : 0,
            "byteLength" : 480,
            "byteOffset" : 9600
        },
        {
            "buffer" : 0,
            "byteLength" : 576,
            "byteOffset" : 10080
        },
        {
            "buffer" : 0,
            "byteLength" : 576,
            "byteOffset" : 10656
        },
        {
            "buffer" : 0,
            "byteLength" : 384,
            "byteOffset" : 11232
        },
        {
            "buffer" : 0,
            "byteLength" : 480,
            "byteOffset" : 11616
        },
        {
            "buffer" : 0,
            "byteLength" : 576,
            "byteOffset" : 12096
        },
        {
            "buffer" : 0,
            "byteLength" : 576,
            "byteOffset" : 12672
        },
        {
            "buffer" : 0,
            "byteLength" : 384,
            "byteOffset" : 13248
        },
        {
            "buffer" : 0,
            "byteLength" : 480,
            "byteOffset" : 13632
        },
        {
            "buffer" : 0,
            "byteLength" : 576,
            "byteOffset" : 14112
        },
        {
            "buffer" : 0,
            "byteLength" : 576,
            "byteOffset" : 14688
        },
        {
            "buffer" : 0,
            "byteLength" : 384,
            "byteOffset" : 15264
        }
    ],
    "buffers" : [
        {
            "byteLength" : 15648,
            "uri" : "rocks.bin"
        }
    ]
}
