{
    "asset" : {
        "generator" : "Khronos glTF Blender I/O v0.9.24",
        "version" : "2.0"
    },
    "scene" : 0,
    "scenes" : [
        {
            "name" : "Scene",
            "nodes" : [
                0,
                1,
                3,
                5,
                7
            ]
        }
    ],
    "nodes" : [
        {
            "name" : "Light",
            "rotation" : [
                0.16907575726509094,
                0.7558803558349609,
                -0.27217137813568115,
                0.570947527885437
            ],
            "scale" : [
                0.19578981399536133,
                0.19578978419303894,
                0.19578981399536133
            ],
            "translation" : [
                2.867509603500366,
                2.8094849586486816,
                1.2850109338760376
            ]
        },
        {
            "name" : "Camera",
            "rotation" : [
                0.483536034822464,
                0.33687159419059753,
                -0.20870360732078552,
                0.7804827094078064
            ],
            "scale" : [
                0.19578978419303894,
                0.19578978419303894,
                0.19578978419303894
            ],
            "translation" : [
                3.378443717956543,
                2.4693479537963867,
                2.971311092376709
            ]
        },
        {
            "mesh" : 0,
            "name" : "Plane",
            "rotation" : [
                0.9525302052497864,
                0,
                -0.3044443726539612,
                7.659233602907989e-08
            ],
            "scale" : [
                1.2085915803909302,
                1,
                0.8989273905754089
            ],
            "translation" : [
                -0.336045503616333,
                0.043355997651815414,
                -0.7435426712036133
            ]
        },
        {
            "children" : [
                2
            ],
            "mesh" : 1,
            "name" : "Plane.001",
            "rotation" : [
                -0.9537169337272644,
                0,
                0.30070579051971436,
                7.200362972525909e-08
            ],
            "scale" : [
                0.3033369481563568,
                0.19578978419303894,
                0.19578981399536133
            ],
            "translation" : [
                2.069422483444214,
                1.6859298944473267,
                1.304150104522705
            ]
        },
        {
            "mesh" : 2,
            "name" : "Circle.001",
            "rotation" : [
                -0.12186524271965027,
                0,
                0,
                0.9925466775894165
            ],
            "scale" : [
                0.4411449432373047,
                0.9768924117088318,
                1.0078665018081665
            ],
            "translation" : [
                0,
                1.7725677490234375,
                4.250267505645752
            ]
        },
        {
            "children" : [
                4
            ],
            "mesh" : 3,
            "name" : "Circle",
            "rotation" : [
                0.5,
                0.4999999701976776,
                0.5,
                0.5000000596046448
            ],
            "scale" : [
                0.015758872032165527,
                0.023316508159041405,
                0.023316508159041405
            ]
        },
        {
            "mesh" : 4,
            "name" : "Plane.003",
            "scale" : [
                0.6577130556106567,
                0.9961209893226624,
                0.6577131152153015
            ],
            "translation" : [
                -3.814697265625e-06,
                0,
                0
            ]
        },
        {
            "children" : [
                6
            ],
            "mesh" : 5,
            "name" : "Plane.002",
            "rotation" : [
                0.7071067690849304,
                0,
                0,
                0.7071068286895752
            ],
            "scale" : [
                0.07893642038106918,
                0.14768679440021515,
                0.03588533401489258
            ],
            "translation" : [
                2.5332870483398438,
                1.653568983078003,
                1.5904858112335205
            ]
        }
    ],
    "materials" : [
        {
            "doubleSided" : true,
            "name" : "Material.001",
            "pbrMetallicRoughness" : {
                "baseColorTexture" : {
                    "index" : 0,
                    "texCoord" : 0
                },
                "metallicFactor" : 0,
                "roughnessFactor" : 0.5
            }
        },
        {
            "doubleSided" : true,
            "name" : "Material.002",
            "pbrMetallicRoughness" : {
                "baseColorTexture" : {
                    "index" : 1,
                    "texCoord" : 0
                },
                "metallicFactor" : 0,
                "roughnessFactor" : 0.3880000114440918
            }
        },
        {
            "doubleSided" : true,
            "name" : "Material.004",
            "pbrMetallicRoughness" : {
                "baseColorTexture" : {
                    "index" : 2,
                    "texCoord" : 0
                },
                "metallicFactor" : 0,
                "roughnessFactor" : 0.5
            }
        },
        {
            "doubleSided" : true,
            "name" : "Material.003",
            "pbrMetallicRoughness" : {
                "baseColorTexture" : {
                    "index" : 3,
                    "texCoord" : 0
                },
                "metallicFactor" : 0,
                "roughnessFactor" : 0.5
            }
        },
        {
            "doubleSided" : true,
            "name" : "Material.005",
            "pbrMetallicRoughness" : {
                "baseColorTexture" : {
                    "index" : 4,
                    "texCoord" : 0
                },
                "metallicFactor" : 0,
                "roughnessFactor" : 0.5
            }
        }
    ],
    "meshes" : [
        {
            "name" : "Plane",
            "primitives" : [
                {
                    "attributes" : {
                        "POSITION" : 0,
                        "NORMAL" : 1,
                        "TEXCOORD_0" : 2
                    },
                    "indices" : 3,
                    "material" : 0
                },
                {
                    "attributes" : {
                        "POSITION" : 4,
                        "NORMAL" : 5,
                        "TEXCOORD_0" : 6
                    },
                    "indices" : 7,
                    "material" : 1
                }
            ]
        },
        {
            "name" : "Plane.001",
            "primitives" : [
                {
                    "attributes" : {
                        "POSITION" : 8,
                        "NORMAL" : 9,
                        "TEXCOORD_0" : 10
                    },
                    "indices" : 3,
                    "material" : 0
                },
                {
                    "attributes" : {
                        "POSITION" : 11,
                        "NORMAL" : 12,
                        "TEXCOORD_0" : 13
                    },
                    "indices" : 7,
                    "material" : 1
                }
            ]
        },
        {
            "name" : "Circle.001",
            "primitives" : [
                {
                    "attributes" : {
                        "POSITION" : 14,
                        "NORMAL" : 15,
                        "TEXCOORD_0" : 16
                    },
                    "indices" : 17,
                    "material" : 2
                }
            ]
        },
        {
            "name" : "Circle",
            "primitives" : [
                {
                    "attributes" : {
                        "POSITION" : 18,
                        "NORMAL" : 19,
                        "TEXCOORD_0" : 20
                    },
                    "indices" : 17,
                    "material" : 3
                }
            ]
        },
        {
            "name" : "Plane.004",
            "primitives" : [
                {
                    "attributes" : {
                        "POSITION" : 21,
                        "NORMAL" : 22,
                        "TEXCOORD_0" : 23
                    },
                    "indices" : 24,
                    "material" : 4
                }
            ]
        },
        {
            "name" : "Plane.003",
            "primitives" : [
                {
                    "attributes" : {
                        "POSITION" : 25,
                        "NORMAL" : 26,
                        "TEXCOORD_0" : 27
                    },
                    "indices" : 28,
                    "material" : 4
                }
            ]
        }
    ],
    "textures" : [
        {
            "source" : 0
        },
        {
            "source" : 1
        },
        {
            "source" : 1
        },
        {
            "source" : 0
        },
        {
            "source" : 0
        }
    ],
    "images" : [
        {
            "mimeType" : "image/jpeg",
            "name" : "newspaper",
            "uri" : "newspaper.jpg"
        },
        {
            "mimeType" : "image/jpeg",
            "name" : "newspaper2",
            "uri" : "newspaper2.jpg"
        }
    ],
    "accessors" : [
        {
            "bufferView" : 0,
            "componentType" : 5126,
            "count" : 288,
            "max" : [
                1.0008525848388672,
                0.045613598078489304,
                1
            ],
            "min" : [
                -1.0195599794387817,
                -0.028345171362161636,
                -1.0254395008087158
            ],
            "type" : "VEC3"
        },
        {
            "bufferView" : 1,
            "componentType" : 5126,
            "count" : 288,
            "type" : "VEC3"
        },
        {
            "bufferView" : 2,
            "componentType" : 5126,
            "count" : 288,
            "type" : "VEC2"
        },
        {
            "bufferView" : 3,
            "componentType" : 5123,
            "count" : 444,
            "type" : "SCALAR"
        },
        {
            "bufferView" : 4,
            "componentType" : 5126,
            "count" : 136,
            "max" : [
                1.0396126508712769,
                -0.023384541273117065,
                1.0759347677230835
            ],
            "min" : [
                -1.0188390016555786,
                -0.07815473526716232,
                -0.990662157535553
            ],
            "type" : "VEC3"
        },
        {
            "bufferView" : 5,
            "componentType" : 5126,
            "count" : 136,
            "type" : "VEC3"
        },
        {
            "bufferView" : 6,
            "componentType" : 5126,
            "count" : 136,
            "type" : "VEC2"
        },
        {
            "bufferView" : 7,
            "componentType" : 5123,
            "count" : 204,
            "type" : "SCALAR"
        },
        {
            "bufferView" : 8,
            "componentType" : 5126,
            "count" : 288,
            "max" : [
                1.0008525848388672,
                0.045613598078489304,
                1
            ],
            "min" : [
                -1.0195599794387817,
                -0.028345171362161636,
                -1.0254395008087158
            ],
            "type" : "VEC3"
        },
        {
            "bufferView" : 9,
            "componentType" : 5126,
            "count" : 288,
            "type" : "VEC3"
        },
        {
            "bufferView" : 10,
            "componentType" : 5126,
            "count" : 288,
            "type" : "VEC2"
        },
        {
            "bufferView" : 11,
            "componentType" : 5126,
            "count" : 136,
            "max" : [
                1.0396126508712769,
                -0.023384541273117065,
                1.0759347677230835
            ],
            "min" : [
                -1.0188390016555786,
                -0.07815473526716232,
                -0.990662157535553
            ],
            "type" : "VEC3"
        },
        {
            "bufferView" : 12,
            "componentType" : 5126,
            "count" : 136,
            "type" : "VEC3"
        },
        {
            "bufferView" : 13,
            "componentType" : 5126,
            "count" : 136,
            "type" : "VEC2"
        },
        {
            "bufferView" : 14,
            "componentType" : 5126,
            "count" : 292,
            "max" : [
                1.098659873008728,
                12.556976318359375,
                10.918563842773438
            ],
            "min" : [
                -1.5057404041290283,
                -12.556975364685059,
                -6.684389114379883
            ],
            "type" : "VEC3"
        },
        {
            "bufferView" : 15,
            "componentType" : 5126,
            "count" : 292,
            "type" : "VEC3"
        },
        {
            "bufferView" : 16,
            "componentType" : 5126,
            "count" : 292,
            "type" : "VEC2"
        },
        {
            "bufferView" : 17,
            "componentType" : 5123,
            "count" : 438,
            "type" : "SCALAR"
        },
        {
            "bufferView" : 18,
            "componentType" : 5126,
            "count" : 292,
            "max" : [
                1.098659873008728,
                12.556976318359375,
                10.918563842773438
            ],
            "min" : [
                -1.5057404041290283,
                -12.556975364685059,
                -6.684389114379883
            ],
            "type" : "VEC3"
        },
        {
            "bufferView" : 19,
            "componentType" : 5126,
            "count" : 292,
            "type" : "VEC3"
        },
        {
            "bufferView" : 20,
            "componentType" : 5126,
            "count" : 292,
            "type" : "VEC2"
        },
        {
            "bufferView" : 21,
            "componentType" : 5126,
            "count" : 108,
            "max" : [
                0.5468466281890869,
                1.6425808668136597,
                0.3094292879104614
            ],
            "min" : [
                -0.6278416514396667,
                -1.6425806283950806,
                -0.3603910505771637
            ],
            "type" : "VEC3"
        },
        {
            "bufferView" : 22,
            "componentType" : 5126,
            "count" : 108,
            "type" : "VEC3"
        },
        {
            "bufferView" : 23,
            "componentType" : 5126,
            "count" : 108,
            "type" : "VEC2"
        },
        {
            "bufferView" : 24,
            "componentType" : 5123,
            "count" : 162,
            "type" : "SCALAR"
        },
        {
            "bufferView" : 25,
            "componentType" : 5126,
            "count" : 324,
            "max" : [
                0.5468466281890869,
                1.6425808668136597,
                0.2961913049221039
            ],
            "min" : [
                -0.6278416514396667,
                -1.6425806283950806,
                -0.5252870917320251
            ],
            "type" : "VEC3"
        },
        {
            "bufferView" : 26,
            "componentType" : 5126,
            "count" : 324,
            "type" : "VEC3"
        },
        {
            "bufferView" : 27,
            "componentType" : 5126,
            "count" : 324,
            "type" : "VEC2"
        },
        {
            "bufferView" : 28,
            "componentType" : 5123,
            "count" : 486,
            "type" : "SCALAR"
        }
    ],
    "bufferViews" : [
        {
            "buffer" : 0,
            "byteLength" : 3456,
            "byteOffset" : 0
        },
        {
            "buffer" : 0,
            "byteLength" : 3456,
            "byteOffset" : 3456
        },
        {
            "buffer" : 0,
            "byteLength" : 2304,
            "byteOffset" : 6912
        },
        {
            "buffer" : 0,
            "byteLength" : 888,
            "byteOffset" : 9216
        },
        {
            "buffer" : 0,
            "byteLength" : 1632,
            "byteOffset" : 10104
        },
        {
            "buffer" : 0,
            "byteLength" : 1632,
            "byteOffset" : 11736
        },
        {
            "buffer" : 0,
            "byteLength" : 1088,
            "byteOffset" : 13368
        },
        {
            "buffer" : 0,
            "byteLength" : 408,
            "byteOffset" : 14456
        },
        {
            "buffer" : 0,
            "byteLength" : 3456,
            "byteOffset" : 14864
        },
        {
            "buffer" : 0,
            "byteLength" : 3456,
            "byteOffset" : 18320
        },
        {
            "buffer" : 0,
            "byteLength" : 2304,
            "byteOffset" : 21776
        },
        {
            "buffer" : 0,
            "byteLength" : 1632,
            "byteOffset" : 24080
        },
        {
            "buffer" : 0,
            "byteLength" : 1632,
            "byteOffset" : 25712
        },
        {
            "buffer" : 0,
            "byteLength" : 1088,
            "byteOffset" : 27344
        },
        {
            "buffer" : 0,
            "byteLength" : 3504,
            "byteOffset" : 28432
        },
        {
            "buffer" : 0,
            "byteLength" : 3504,
            "byteOffset" : 31936
        },
        {
            "buffer" : 0,
            "byteLength" : 2336,
            "byteOffset" : 35440
        },
        {
            "buffer" : 0,
            "byteLength" : 876,
            "byteOffset" : 37776
        },
        {
            "buffer" : 0,
            "byteLength" : 3504,
            "byteOffset" : 38652
        },
        {
            "buffer" : 0,
            "byteLength" : 3504,
            "byteOffset" : 42156
        },
        {
            "buffer" : 0,
            "byteLength" : 2336,
            "byteOffset" : 45660
        },
        {
            "buffer" : 0,
            "byteLength" : 1296,
            "byteOffset" : 47996
        },
        {
            "buffer" : 0,
            "byteLength" : 1296,
            "byteOffset" : 49292
        },
        {
            "buffer" : 0,
            "byteLength" : 864,
            "byteOffset" : 50588
        },
        {
            "buffer" : 0,
            "byteLength" : 324,
            "byteOffset" : 51452
        },
        {
            "buffer" : 0,
            "byteLength" : 3888,
            "byteOffset" : 51776
        },
        {
            "buffer" : 0,
            "byteLength" : 3888,
            "byteOffset" : 55664
        },
        {
            "buffer" : 0,
            "byteLength" : 2592,
            "byteOffset" : 59552
        },
        {
            "buffer" : 0,
            "byteLength" : 972,
            "byteOffset" : 62144
        }
    ],
    "buffers" : [
        {
            "byteLength" : 63116,
            "uri" : "newspaper.bin"
        }
    ]
}
