{
    "asset" : {
        "generator" : "Khronos glTF Blender I/O v0.9.24",
        "version" : "2.0"
    },
    "scene" : 0,
    "scenes" : [
        {
            "name" : "Scene",
            "nodes" : [
                0,
                1,
                3,
                4
            ]
        }
    ],
    "nodes" : [
        {
            "name" : "Light",
            "rotation" : [
                0.16907575726509094,
                0.7558803558349609,
                -0.27217137813568115,
                0.570947527885437
            ],
            "translation" : [
                4.076245307922363,
                5.903861999511719,
                -1.0054539442062378
            ]
        },
        {
            "name" : "Camera",
            "rotation" : [
                0.483536034822464,
                0.33687159419059753,
                -0.20870360732078552,
                0.7804827094078064
            ],
            "translation" : [
                7.358891487121582,
                6.237192630767822,
                6.925790786743164
            ]
        },
        {
            "mesh" : 0,
            "name" : "Circle",
            "rotation" : [
                -0.6139729619026184,
                -0.38968417048454285,
                -0.04482695832848549,
                0.6849626898765564
            ],
            "scale" : [
                0.20456787943840027,
                1.0313172340393066,
                1.0920076370239258
            ],
            "translation" : [
                -0.018727248534560204,
                17.85565757751465,
                -0.0339529849588871
            ]
        },
        {
            "children" : [
                2
            ],
            "mesh" : 1,
            "name" : "Cylinder",
            "rotation" : [
                0,
                0.9694534540176392,
                0,
                0.24527528882026672
            ],
            "scale" : [
                0.15618348121643066,
                0.023119624704122543,
                0.15618348121643066
            ]
        },
        {
            "name" : "Light.001",
            "rotation" : [
                0.16907575726509094,
                0.7558803558349609,
                -0.27217137813568115,
                0.570947527885437
            ],
            "translation" : [
                -2.4961676597595215,
                9.73857307434082,
                3.441657543182373
            ]
        }
    ],
    "materials" : [
        {
            "doubleSided" : true,
            "name" : "Material.001",
            "pbrMetallicRoughness" : {
                "baseColorTexture" : {
                    "index" : 0,
                    "texCoord" : 0
                },
                "metallicFactor" : 0.4749999940395355,
                "roughnessFactor" : 0.5
            }
        }
    ],
    "meshes" : [
        {
            "name" : "Circle",
            "primitives" : [
                {
                    "attributes" : {
                        "POSITION" : 0,
                        "NORMAL" : 1,
                        "TEXCOORD_0" : 2
                    },
                    "indices" : 3,
                    "material" : 0
                }
            ]
        },
        {
            "name" : "Cylinder",
            "primitives" : [
                {
                    "attributes" : {
                        "POSITION" : 4,
                        "NORMAL" : 5,
                        "TEXCOORD_0" : 6
                    },
                    "indices" : 7,
                    "material" : 0
                }
            ]
        }
    ],
    "textures" : [
        {
            "source" : 0
        }
    ],
    "images" : [
        {
            "mimeType" : "image/jpeg",
            "name" : "tin_can_texture",
            "uri" : "tin_can_texture.jpg"
        }
    ],
    "accessors" : [
        {
            "bufferView" : 0,
            "componentType" : 5126,
            "count" : 229,
            "max" : [
                0.7378431558609009,
                0.597533106803894,
                1.0025219917297363
            ],
            "min" : [
                -0.7378431558609009,
                -0.27871277928352356,
                -0.8623403906822205
            ],
            "type" : "VEC3"
        },
        {
            "bufferView" : 1,
            "componentType" : 5126,
            "count" : 229,
            "type" : "VEC3"
        },
        {
            "bufferView" : 2,
            "componentType" : 5126,
            "count" : 229,
            "type" : "VEC2"
        },
        {
            "bufferView" : 3,
            "componentType" : 5123,
            "count" : 636,
            "type" : "SCALAR"
        },
        {
            "bufferView" : 4,
            "componentType" : 5126,
            "count" : 676,
            "max" : [
                1,
                20.521684646606445,
                1
            ],
            "min" : [
                -1,
                -1.1032800674438477,
                -1
            ],
            "type" : "VEC3"
        },
        {
            "bufferView" : 5,
            "componentType" : 5126,
            "count" : 676,
            "type" : "VEC3"
        },
        {
            "bufferView" : 6,
            "componentType" : 5126,
            "count" : 676,
            "type" : "VEC2"
        },
        {
            "bufferView" : 7,
            "componentType" : 5123,
            "count" : 1908,
            "type" : "SCALAR"
        }
    ],
    "bufferViews" : [
        {
            "buffer" : 0,
            "byteLength" : 2748,
            "byteOffset" : 0
        },
        {
            "buffer" : 0,
            "byteLength" : 2748,
            "byteOffset" : 2748
        },
        {
            "buffer" : 0,
            "byteLength" : 1832,
            "byteOffset" : 5496
        },
        {
            "buffer" : 0,
            "byteLength" : 1272,
            "byteOffset" : 7328
        },
        {
            "buffer" : 0,
            "byteLength" : 8112,
            "byteOffset" : 8600
        },
        {
            "buffer" : 0,
            "byteLength" : 8112,
            "byteOffset" : 16712
        },
        {
            "buffer" : 0,
            "byteLength" : 5408,
            "byteOffset" : 24824
        },
        {
            "buffer" : 0,
            "byteLength" : 3816,
            "byteOffset" : 30232
        }
    ],
    "buffers" : [
        {
            "byteLength" : 34048,
            "uri" : "tin-can.bin"
        }
    ]
}
