{
    "asset" : {
        "generator" : "Khronos glTF Blender I/O v0.9.24",
        "version" : "2.0"
    },
    "scene" : 0,
    "scenes" : [
        {
            "name" : "Scene",
            "nodes" : [
                0,
                1,
                2,
                4
            ]
        }
    ],
    "nodes" : [
        {
            "name" : "Light",
            "rotation" : [
                0.16907575726509094,
                0.7558803558349609,
                -0.27217137813568115,
                0.570947527885437
            ],
            "translation" : [
                4.076245307922363,
                5.903861999511719,
                -1.0054539442062378
            ]
        },
        {
            "name" : "Camera",
            "rotation" : [
                0.483536034822464,
                0.33687159419059753,
                -0.20870360732078552,
                0.7804827094078064
            ],
            "translation" : [
                12.754854202270508,
                11.310192108154297,
                11.911449432373047
            ]
        },
        {
            "name" : "Empty",
            "rotation" : [
                0.7071067690849304,
                0,
                0,
                0.7071068286895752
            ],
            "scale" : [
                7.829172611236572,
                7.829172611236572,
                7.829172611236572
            ],
            "translation" : [
                1.5999999046325684,
                2.200000047683716,
                0
            ]
        },
        {
            "mesh" : 0,
            "name" : "Cylinder.001",
            "scale" : [
                0.09191129356622696,
                0.09191128611564636,
                0.09191128611564636
            ],
            "translation" : [
                0,
                3,
                0
            ]
        },
        {
            "children" : [
                3
            ],
            "mesh" : 1,
            "name" : "Cylinder",
            "scale" : [
                0.023739341646432877,
                0.0208333320915699,
                0.024105561897158623
            ]
        }
    ],
    "materials" : [
        {
            "doubleSided" : true,
            "name" : "Material.004",
            "pbrMetallicRoughness" : {
                "baseColorFactor" : [
                    0.11493580043315887,
                    0.06312360614538193,
                    0.032997991889715195,
                    1
                ],
                "metallicFactor" : 0,
                "roughnessFactor" : 0.5
            }
        },
        {
            "doubleSided" : true,
            "name" : "Material.005",
            "pbrMetallicRoughness" : {
                "baseColorFactor" : [
                    0.6266627311706543,
                    0.06510215997695923,
                    0.03306541219353676,
                    1
                ],
                "metallicFactor" : 0,
                "roughnessFactor" : 0.5
            }
        },
        {
            "doubleSided" : true,
            "name" : "Material.006",
            "pbrMetallicRoughness" : {
                "baseColorFactor" : [
                    0.8140428066253662,
                    0.505445659160614,
                    0.34122392535209656,
                    1
                ],
                "metallicFactor" : 0,
                "roughnessFactor" : 0.5
            }
        }
    ],
    "meshes" : [
        {
            "name" : "Cylinder.002",
            "primitives" : [
                {
                    "attributes" : {
                        "POSITION" : 0,
                        "NORMAL" : 1,
                        "TEXCOORD_0" : 2
                    },
                    "indices" : 3,
                    "material" : 0
                }
            ]
        },
        {
            "name" : "Cylinder.001",
            "primitives" : [
                {
                    "attributes" : {
                        "POSITION" : 4,
                        "NORMAL" : 5,
                        "TEXCOORD_0" : 6
                    },
                    "indices" : 7,
                    "material" : 1
                },
                {
                    "attributes" : {
                        "POSITION" : 8,
                        "NORMAL" : 9,
                        "TEXCOORD_0" : 10
                    },
                    "indices" : 11,
                    "material" : 2
                }
            ]
        }
    ],
    "accessors" : [
        {
            "bufferView" : 0,
            "componentType" : 5126,
            "count" : 396,
            "max" : [
                4.650731563568115,
                21.4334716796875,
                1.626853346824646
            ],
            "min" : [
                -0.9848078489303589,
                -1,
                -1.626854419708252
            ],
            "type" : "VEC3"
        },
        {
            "bufferView" : 1,
            "componentType" : 5126,
            "count" : 396,
            "type" : "VEC3"
        },
        {
            "bufferView" : 2,
            "componentType" : 5126,
            "count" : 396,
            "type" : "VEC2"
        },
        {
            "bufferView" : 3,
            "componentType" : 5123,
            "count" : 636,
            "type" : "SCALAR"
        },
        {
            "bufferView" : 4,
            "componentType" : 5126,
            "count" : 295,
            "max" : [
                2.121171474456787,
                3.299999952316284,
                2.0151662826538086
            ],
            "min" : [
                -2.091245412826538,
                -1.5,
                -2.133254051208496
            ],
            "type" : "VEC3"
        },
        {
            "bufferView" : 5,
            "componentType" : 5126,
            "count" : 295,
            "type" : "VEC3"
        },
        {
            "bufferView" : 6,
            "componentType" : 5126,
            "count" : 295,
            "type" : "VEC2"
        },
        {
            "bufferView" : 7,
            "componentType" : 5123,
            "count" : 1284,
            "type" : "SCALAR"
        },
        {
            "bufferView" : 8,
            "componentType" : 5126,
            "count" : 146,
            "max" : [
                2.0002012252807617,
                2.63325572013855,
                1.8975186347961426
            ],
            "min" : [
                -1.9713215827941895,
                -0.6098996996879578,
                -2.0134737491607666
            ],
            "type" : "VEC3"
        },
        {
            "bufferView" : 9,
            "componentType" : 5126,
            "count" : 146,
            "type" : "VEC3"
        },
        {
            "bufferView" : 10,
            "componentType" : 5126,
            "count" : 146,
            "type" : "VEC2"
        },
        {
            "bufferView" : 11,
            "componentType" : 5123,
            "count" : 648,
            "type" : "SCALAR"
        }
    ],
    "bufferViews" : [
        {
            "buffer" : 0,
            "byteLength" : 4752,
            "byteOffset" : 0
        },
        {
            "buffer" : 0,
            "byteLength" : 4752,
            "byteOffset" : 4752
        },
        {
            "buffer" : 0,
            "byteLength" : 3168,
            "byteOffset" : 9504
        },
        {
            "buffer" : 0,
            "byteLength" : 1272,
            "byteOffset" : 12672
        },
        {
            "buffer" : 0,
            "byteLength" : 3540,
            "byteOffset" : 13944
        },
        {
            "buffer" : 0,
            "byteLength" : 3540,
            "byteOffset" : 17484
        },
        {
            "buffer" : 0,
            "byteLength" : 2360,
            "byteOffset" : 21024
        },
        {
            "buffer" : 0,
            "byteLength" : 2568,
            "byteOffset" : 23384
        },
        {
            "buffer" : 0,
            "byteLength" : 1752,
            "byteOffset" : 25952
        },
        {
            "buffer" : 0,
            "byteLength" : 1752,
            "byteOffset" : 27704
        },
        {
            "buffer" : 0,
            "byteLength" : 1168,
            "byteOffset" : 29456
        },
        {
            "buffer" : 0,
            "byteLength" : 1296,
            "byteOffset" : 30624
        }
    ],
    "buffers" : [
        {
            "byteLength" : 31920,
            "uri" : "apple.bin"
        }
    ]
}
