{
    "asset" : {
        "generator" : "Khronos Blender glTF 2.0 I/O",
        "version" : "2.0"
    },
    "scene" : 0,
    "scenes" : [
        {
            "name" : "Scene",
            "nodes" : [
                0
            ]
        }
    ],
    "nodes" : [
        {
            "mesh" : 0,
            "name" : "Cylinder",
            "rotation" : [
                -0.010525846853852272,
                -0.9800289869308472,
                0.05398086830973625,
                -0.19109798967838287
            ],
            "scale" : [
                0.44685420393943787,
                0.26145926117897034,
                0.44685420393943787
            ],
            "translation" : [
                0,
                0.5905935764312744,
                -0.4170747399330139
            ]
        }
    ],
    "materials" : [
        {
            "name" : "Material.002",
            "pbrMetallicRoughness" : {
                "baseColorFactor" : [
                    0.72304368019104,
                    0.31509634852409363,
                    0.0005268173990771174,
                    1
                ],
                "metallicFactor" : 0,
                "roughnessFactor" : 0.5
            }
        },
        {
            "name" : "Material.003",
            "pbrMetallicRoughness" : {
                "baseColorFactor" : [
                    0.09462518244981766,
                    0.04154842346906662,
                    0.007000970188528299,
                    1
                ],
                "metallicFactor" : 0,
                "roughnessFactor" : 0.5
            }
        },
        {
            "name" : "Material.004",
            "pbrMetallicRoughness" : {
                "baseColorFactor" : [
                    0.07658004760742188,
                    0.06455130875110626,
                    0.00937867071479559,
                    1
                ],
                "metallicFactor" : 0,
                "roughnessFactor" : 0.5
            }
        },
        {
            "name" : "Material.005",
            "pbrMetallicRoughness" : {
                "baseColorFactor" : [
                    0.8000000715255737,
                    0.5974867343902588,
                    0.31484711170196533,
                    1
                ],
                "metallicFactor" : 0,
                "roughnessFactor" : 0.5
            }
        }
    ],
    "meshes" : [
        {
            "name" : "Cylinder",
            "primitives" : [
                {
                    "attributes" : {
                        "POSITION" : 0,
                        "NORMAL" : 1,
                        "TEXCOORD_0" : 2
                    },
                    "indices" : 3,
                    "material" : 0
                },
                {
                    "attributes" : {
                        "POSITION" : 4,
                        "NORMAL" : 5,
                        "TEXCOORD_0" : 6
                    },
                    "indices" : 7,
                    "material" : 1
                },
                {
                    "attributes" : {
                        "POSITION" : 8,
                        "NORMAL" : 9,
                        "TEXCOORD_0" : 10
                    },
                    "indices" : 11,
                    "material" : 2
                },
                {
                    "attributes" : {
                        "POSITION" : 12,
                        "NORMAL" : 13,
                        "TEXCOORD_0" : 14
                    },
                    "indices" : 15,
                    "material" : 3
                }
            ]
        }
    ],
    "accessors" : [
        {
            "bufferView" : 0,
            "componentType" : 5126,
            "count" : 746,
            "max" : [
                7.835926055908203,
                2.9655051231384277,
                8.595756530761719
            ],
            "min" : [
                -8.265551567077637,
                -3.635164737701416,
                -6.693395614624023
            ],
            "type" : "VEC3"
        },
        {
            "bufferView" : 1,
            "componentType" : 5126,
            "count" : 746,
            "type" : "VEC3"
        },
        {
            "bufferView" : 2,
            "componentType" : 5126,
            "count" : 746,
            "type" : "VEC2"
        },
        {
            "bufferView" : 3,
            "componentType" : 5123,
            "count" : 1122,
            "type" : "SCALAR"
        },
        {
            "bufferView" : 4,
            "componentType" : 5126,
            "count" : 86,
            "max" : [
                -0.02132323384284973,
                3.133601665496826,
                0.10025665909051895
            ],
            "min" : [
                -0.3841899037361145,
                1.2414250373840332,
                -1.6086819171905518
            ],
            "type" : "VEC3"
        },
        {
            "bufferView" : 5,
            "componentType" : 5126,
            "count" : 86,
            "type" : "VEC3"
        },
        {
            "bufferView" : 6,
            "componentType" : 5126,
            "count" : 86,
            "type" : "VEC2"
        },
        {
            "bufferView" : 7,
            "componentType" : 5123,
            "count" : 138,
            "type" : "SCALAR"
        },
        {
            "bufferView" : 8,
            "componentType" : 5126,
            "count" : 40,
            "max" : [
                7.478816032409668,
                -2.279254913330078,
                -2.394547700881958
            ],
            "min" : [
                -7.992186069488525,
                -3.6325159072875977,
                -6.698696136474609
            ],
            "type" : "VEC3"
        },
        {
            "bufferView" : 9,
            "componentType" : 5126,
            "count" : 40,
            "type" : "VEC3"
        },
        {
            "bufferView" : 10,
            "componentType" : 5126,
            "count" : 40,
            "type" : "VEC2"
        },
        {
            "bufferView" : 11,
            "componentType" : 5123,
            "count" : 60,
            "type" : "SCALAR"
        },
        {
            "bufferView" : 12,
            "componentType" : 5126,
            "count" : 320,
            "max" : [
                7.752021312713623,
                2.866588592529297,
                8.577460289001465
            ],
            "min" : [
                -8.16662883758545,
                -3.4636402130126953,
                -6.510916709899902
            ],
            "type" : "VEC3"
        },
        {
            "bufferView" : 13,
            "componentType" : 5126,
            "count" : 320,
            "type" : "VEC3"
        },
        {
            "bufferView" : 14,
            "componentType" : 5126,
            "count" : 320,
            "type" : "VEC2"
        },
        {
            "bufferView" : 15,
            "componentType" : 5123,
            "count" : 480,
            "type" : "SCALAR"
        }
    ],
    "bufferViews" : [
        {
            "buffer" : 0,
            "byteLength" : 8952,
            "byteOffset" : 0
        },
        {
            "buffer" : 0,
            "byteLength" : 8952,
            "byteOffset" : 8952
        },
        {
            "buffer" : 0,
            "byteLength" : 5968,
            "byteOffset" : 17904
        },
        {
            "buffer" : 0,
            "byteLength" : 2244,
            "byteOffset" : 23872
        },
        {
            "buffer" : 0,
            "byteLength" : 1032,
            "byteOffset" : 26116
        },
        {
            "buffer" : 0,
            "byteLength" : 1032,
            "byteOffset" : 27148
        },
        {
            "buffer" : 0,
            "byteLength" : 688,
            "byteOffset" : 28180
        },
        {
            "buffer" : 0,
            "byteLength" : 276,
            "byteOffset" : 28868
        },
        {
            "buffer" : 0,
            "byteLength" : 480,
            "byteOffset" : 29144
        },
        {
            "buffer" : 0,
            "byteLength" : 480,
            "byteOffset" : 29624
        },
        {
            "buffer" : 0,
            "byteLength" : 320,
            "byteOffset" : 30104
        },
        {
            "buffer" : 0,
            "byteLength" : 120,
            "byteOffset" : 30424
        },
        {
            "buffer" : 0,
            "byteLength" : 3840,
            "byteOffset" : 30544
        },
        {
            "buffer" : 0,
            "byteLength" : 3840,
            "byteOffset" : 34384
        },
        {
            "buffer" : 0,
            "byteLength" : 2560,
            "byteOffset" : 38224
        },
        {
            "buffer" : 0,
            "byteLength" : 960,
            "byteOffset" : 40784
        }
    ],
    "buffers" : [
        {
            "byteLength" : 41744,
            "uri" : "banana-clear.bin"
        }
    ]
}
