{
    "asset" : {
        "generator" : "Khronos glTF Blender I/O v0.9.24",
        "version" : "2.0"
    },
    "scene" : 0,
    "scenes" : [
        {
            "name" : "Scene",
            "nodes" : [
                0,
                1,
                2,
                3,
                4
            ]
        }
    ],
    "nodes" : [
        {
            "mesh" : 0,
            "name" : "pizza rebanada",
            "rotation" : [
                0,
                -0.35211002826690674,
                0,
                0.9359586238861084
            ],
            "scale" : [
                0.19357599318027496,
                0.19357576966285706,
                0.19357576966285706
            ]
        },
        {
            "name" : "BezierCircle",
            "scale" : [
                0.051526058465242386,
                0.051526058465242386,
                0.051526058465242386
            ],
            "translation" : [
                4.702581405639648,
                10.765625,
                2.6253068447113037
            ]
        },
        {
            "name" : "Lamp",
            "rotation" : [
                0.16907575726509094,
                0.7558803558349609,
                -0.27217137813568115,
                0.570947527885437
            ],
            "translation" : [
                4.076245307922363,
                5.903861999511719,
                -1.0054539442062378
            ]
        },
        {
            "name" : "Camera",
            "rotation" : [
                0.45042508840560913,
                0.3958504796028137,
                -0.17865021526813507,
                0.7800664901733398
            ],
            "translation" : [
                4.756604194641113,
                3.8909363746643066,
                4.142626762390137
            ]
        },
        {
            "name" : "Lamp.001",
            "rotation" : [
                0.16907575726509094,
                0.7558803558349609,
                -0.27217137813568115,
                0.570947527885437
            ],
            "translation" : [
                -6.150775909423828,
                5.903861999511719,
                9.555604934692383
            ]
        }
    ],
    "materials" : [
        {
            "doubleSided" : true,
            "name" : "Material.002",
            "pbrMetallicRoughness" : {
                "baseColorFactor" : [
                    0.5070630311965942,
                    0.20639967918395996,
                    0.03419242426753044,
                    1
                ],
                "metallicFactor" : 0,
                "roughnessFactor" : 0.5
            }
        },
        {
            "doubleSided" : true,
            "name" : "Material.003",
            "pbrMetallicRoughness" : {
                "baseColorTexture" : {
                    "index" : 0,
                    "texCoord" : 0
                },
                "metallicFactor" : 0,
                "roughnessFactor" : 0.5
            }
        },
        {
            "doubleSided" : true,
            "name" : "Material.004",
            "pbrMetallicRoughness" : {
                "baseColorFactor" : [
                    0.3108084499835968,
                    0.01843879371881485,
                    0.008790062740445137,
                    1
                ],
                "metallicFactor" : 0,
                "roughnessFactor" : 0.5
            }
        }
    ],
    "meshes" : [
        {
            "name" : "Cylinder.017",
            "primitives" : [
                {
                    "attributes" : {
                        "POSITION" : 0,
                        "NORMAL" : 1,
                        "TEXCOORD_0" : 2
                    },
                    "indices" : 3,
                    "material" : 0
                },
                {
                    "attributes" : {
                        "POSITION" : 4,
                        "NORMAL" : 5,
                        "TEXCOORD_0" : 6
                    },
                    "indices" : 7,
                    "material" : 1
                },
                {
                    "attributes" : {
                        "POSITION" : 8,
                        "NORMAL" : 9,
                        "TEXCOORD_0" : 10
                    },
                    "indices" : 11,
                    "material" : 2
                }
            ]
        }
    ],
    "textures" : [
        {
            "source" : 0
        }
    ],
    "images" : [
        {
            "mimeType" : "image/jpeg",
            "name" : "texture_pizza",
            "uri" : "texture_pizza.jpg"
        }
    ],
    "accessors" : [
        {
            "bufferView" : 0,
            "componentType" : 5126,
            "count" : 34,
            "max" : [
                0.8442134857177734,
                0.1186438649892807,
                0.8442140817642212
            ],
            "min" : [
                -1.4054715633392334,
                -0.14776794612407684,
                -1.4054714441299438
            ],
            "type" : "VEC3"
        },
        {
            "bufferView" : 1,
            "componentType" : 5126,
            "count" : 34,
            "type" : "VEC3"
        },
        {
            "bufferView" : 2,
            "componentType" : 5126,
            "count" : 34,
            "type" : "VEC2"
        },
        {
            "bufferView" : 3,
            "componentType" : 5123,
            "count" : 174,
            "type" : "SCALAR"
        },
        {
            "bufferView" : 4,
            "componentType" : 5126,
            "count" : 15,
            "max" : [
                0.4934666156768799,
                -0.03522481769323349,
                0.5516321659088135
            ],
            "min" : [
                -1.4054715633392334,
                -0.09540855139493942,
                -1.4054714441299438
            ],
            "type" : "VEC3"
        },
        {
            "bufferView" : 5,
            "componentType" : 5126,
            "count" : 15,
            "type" : "VEC3"
        },
        {
            "bufferView" : 6,
            "componentType" : 5126,
            "count" : 15,
            "type" : "VEC2"
        },
        {
            "bufferView" : 7,
            "componentType" : 5123,
            "count" : 33,
            "type" : "SCALAR"
        },
        {
            "bufferView" : 8,
            "componentType" : 5126,
            "count" : 19,
            "max" : [
                0.7346906065940857,
                -0.03522481769323349,
                0.7346912622451782
            ],
            "min" : [
                -1.4054715633392334,
                -0.11494286358356476,
                -1.4054714441299438
            ],
            "type" : "VEC3"
        },
        {
            "bufferView" : 9,
            "componentType" : 5126,
            "count" : 19,
            "type" : "VEC3"
        },
        {
            "bufferView" : 10,
            "componentType" : 5126,
            "count" : 19,
            "type" : "VEC2"
        },
        {
            "bufferView" : 11,
            "componentType" : 5123,
            "count" : 57,
            "type" : "SCALAR"
        }
    ],
    "bufferViews" : [
        {
            "buffer" : 0,
            "byteLength" : 408,
            "byteOffset" : 0
        },
        {
            "buffer" : 0,
            "byteLength" : 408,
            "byteOffset" : 408
        },
        {
            "buffer" : 0,
            "byteLength" : 272,
            "byteOffset" : 816
        },
        {
            "buffer" : 0,
            "byteLength" : 348,
            "byteOffset" : 1088
        },
        {
            "buffer" : 0,
            "byteLength" : 180,
            "byteOffset" : 1436
        },
        {
            "buffer" : 0,
            "byteLength" : 180,
            "byteOffset" : 1616
        },
        {
            "buffer" : 0,
            "byteLength" : 120,
            "byteOffset" : 1796
        },
        {
            "buffer" : 0,
            "byteLength" : 66,
            "byteOffset" : 1916
        },
        {
            "buffer" : 0,
            "byteLength" : 228,
            "byteOffset" : 1984
        },
        {
            "buffer" : 0,
            "byteLength" : 228,
            "byteOffset" : 2212
        },
        {
            "buffer" : 0,
            "byteLength" : 152,
            "byteOffset" : 2440
        },
        {
            "buffer" : 0,
            "byteLength" : 114,
            "byteOffset" : 2592
        }
    ],
    "buffers" : [
        {
            "byteLength" : 2708,
            "uri" : "pizza.bin"
        }
    ]
}
