{
    "asset" : {
        "generator" : "Khronos Blender glTF 2.0 I/O",
        "version" : "2.0"
    },
    "scene" : 0,
    "scenes" : [
        {
            "extras" : {
                "glTF2ExportSettings" : {
                    "export_apply" : 1,
                    "export_extras" : 1,
                    "export_force_sampling" : 1,
                    "export_format" : "GLTF_SEPARATE"
                }
            },
            "name" : "Scene",
            "nodes" : [
                0,
                1,
                2,
                3,
                4
            ]
        }
    ],
    "nodes" : [
        {
            "mesh" : 0,
            "name" : "Circle",
            "translation" : [
                -0.02132272720336914,
                21.815202713012695,
                0.6299620866775513
            ]
        },
        {
            "mesh" : 1,
            "name" : "Cube.002"
        },
        {
            "mesh" : 2,
            "name" : "polySurface13",
            "rotation" : [
                0.02524547278881073,
                0,
                0,
                0.999681293964386
            ],
            "scale" : [
                0.7729449272155762,
                0.7729449272155762,
                0.7729449272155762
            ],
            "translation" : [
                0.23203447461128235,
                15.20016860961914,
                -1.9623998403549194
            ]
        },
        {
            "mesh" : 3,
            "name" : "Cube",
            "translation" : [
                0,
                11.915501594543457,
                0
            ]
        },
        {
            "mesh" : 4,
            "name" : "Cube.003",
            "translation" : [
                7.99385404586792,
                10.015840530395508,
                2.2638697624206543
            ]
        }
    ],
    "materials" : [
        {
            "name" : "Material.002",
            "pbrMetallicRoughness" : {
                "baseColorFactor" : [
                    0.38437819480895996,
                    0.2984941005706787,
                    0.11279557645320892,
                    1
                ],
                "metallicFactor" : 0,
                "roughnessFactor" : 0.5202311873435974
            }
        },
        {
            "name" : "Material.007",
            "pbrMetallicRoughness" : {
                "baseColorFactor" : [
                    0.38437819480895996,
                    0.19938760995864868,
                    0.017445562407374382,
                    1
                ],
                "metallicFactor" : 0,
                "roughnessFactor" : 0
            }
        },
        {
            "name" : "Material.003",
            "pbrMetallicRoughness" : {
                "baseColorFactor" : [
                    0.18060755729675293,
                    0.38437798619270325,
                    0.18079103529453278,
                    1
                ],
                "metallicFactor" : 0,
                "roughnessFactor" : 0
            }
        },
        {
            "name" : "Material.010",
            "pbrMetallicRoughness" : {
                "baseColorFactor" : [
                    0.023673266172409058,
                    0.08713973313570023,
                    0.050244033336639404,
                    1
                ],
                "metallicFactor" : 0,
                "roughnessFactor" : 0
            }
        },
        {
            "name" : "Material.001",
            "pbrMetallicRoughness" : {
                "baseColorFactor" : [
                    0.8000000715255737,
                    0.5616217851638794,
                    0.16628767549991608,
                    1
                ],
                "metallicFactor" : 0,
                "roughnessFactor" : 0
            }
        },
        {
            "name" : "Material.009",
            "pbrMetallicRoughness" : {
                "baseColorFactor" : [
                    0.033103350549936295,
                    0.020475728437304497,
                    0.005472861230373383,
                    1
                ],
                "metallicFactor" : 0,
                "roughnessFactor" : 0
            }
        },
        {
            "name" : "Material.008",
            "pbrMetallicRoughness" : {
                "baseColorFactor" : [
                    0.007516022771596909,
                    0.014372878707945347,
                    0.26676398515701294,
                    1
                ],
                "metallicFactor" : 0,
                "roughnessFactor" : 0.4624277353286743
            }
        },
        {
            "name" : "Material.005",
            "pbrMetallicRoughness" : {
                "baseColorFactor" : [
                    0.04696046933531761,
                    0.018096910789608955,
                    0.005311647430062294,
                    1
                ],
                "metallicFactor" : 0,
                "roughnessFactor" : 0
            }
        },
        {
            "name" : "Material.012",
            "pbrMetallicRoughness" : {
                "baseColorFactor" : [
                    0.08353249728679657,
                    0.04610980674624443,
                    0.011080502532422543,
                    1
                ],
                "metallicFactor" : 0,
                "roughnessFactor" : 0
            }
        },
        {
            "name" : "Material.011",
            "pbrMetallicRoughness" : {
                "baseColorFactor" : [
                    0.06372151523828506,
                    0.03194702789187431,
                    0.0055803279392421246,
                    1
                ],
                "metallicFactor" : 0,
                "roughnessFactor" : 0
            }
        }
    ],
    "meshes" : [
        {
            "name" : "Circle.001",
            "primitives" : [
                {
                    "attributes" : {
                        "POSITION" : 0,
                        "NORMAL" : 1,
                        "TEXCOORD_0" : 2
                    },
                    "indices" : 3,
                    "material" : 0
                }
            ]
        },
        {
            "name" : "base_human_male_default.002",
            "primitives" : [
                {
                    "attributes" : {
                        "POSITION" : 4,
                        "NORMAL" : 5,
                        "TEXCOORD_0" : 6
                    },
                    "indices" : 7,
                    "material" : 1
                }
            ]
        },
        {
            "name" : "Untitled.000",
            "primitives" : [
                {
                    "attributes" : {
                        "POSITION" : 8,
                        "NORMAL" : 9,
                        "TEXCOORD_0" : 10,
                        "TEXCOORD_1" : 11
                    },
                    "indices" : 12,
                    "material" : 2
                },
                {
                    "attributes" : {
                        "POSITION" : 13,
                        "NORMAL" : 14,
                        "TEXCOORD_0" : 15,
                        "TEXCOORD_1" : 16
                    },
                    "indices" : 17,
                    "material" : 3
                }
            ]
        },
        {
            "name" : "base_human_male_default.002",
            "primitives" : [
                {
                    "attributes" : {
                        "POSITION" : 18,
                        "NORMAL" : 19,
                        "TEXCOORD_0" : 20
                    },
                    "indices" : 21,
                    "material" : 4
                },
                {
                    "attributes" : {
                        "POSITION" : 22,
                        "NORMAL" : 23,
                        "TEXCOORD_0" : 24
                    },
                    "indices" : 25,
                    "material" : 5
                },
                {
                    "attributes" : {
                        "POSITION" : 26,
                        "NORMAL" : 27,
                        "TEXCOORD_0" : 28
                    },
                    "indices" : 29,
                    "material" : 6
                },
                {
                    "attributes" : {
                        "POSITION" : 30,
                        "NORMAL" : 31,
                        "TEXCOORD_0" : 32
                    },
                    "indices" : 33,
                    "material" : 7
                }
            ]
        },
        {
            "name" : "Cube.000",
            "primitives" : [
                {
                    "attributes" : {
                        "POSITION" : 34,
                        "NORMAL" : 35,
                        "TEXCOORD_0" : 36
                    },
                    "indices" : 37,
                    "material" : 8
                },
                {
                    "attributes" : {
                        "POSITION" : 38,
                        "NORMAL" : 39,
                        "TEXCOORD_0" : 40
                    },
                    "indices" : 41,
                    "material" : 9
                }
            ]
        }
    ],
    "accessors" : [
        {
            "bufferView" : 0,
            "componentType" : 5126,
            "count" : 425,
            "max" : [
                2.1112568378448486,
                1.0694200992584229,
                2.1163065433502197
            ],
            "min" : [
                -2.114077091217041,
                -0.05576905980706215,
                -2.1163065433502197
            ],
            "type" : "VEC3"
        },
        {
            "bufferView" : 1,
            "componentType" : 5126,
            "count" : 425,
            "type" : "VEC3"
        },
        {
            "bufferView" : 2,
            "componentType" : 5126,
            "count" : 425,
            "type" : "VEC2"
        },
        {
            "bufferView" : 3,
            "componentType" : 5123,
            "count" : 1728,
            "type" : "SCALAR"
        },
        {
            "bufferView" : 4,
            "componentType" : 5126,
            "count" : 448,
            "max" : [
                4.574038982391357,
                2.7337398529052734,
                2.6923062801361084
            ],
            "min" : [
                -4.570346832275391,
                0.004749298095703125,
                -1.6549525260925293
            ],
            "type" : "VEC3"
        },
        {
            "bufferView" : 5,
            "componentType" : 5126,
            "count" : 448,
            "type" : "VEC3"
        },
        {
            "bufferView" : 6,
            "componentType" : 5126,
            "count" : 448,
            "type" : "VEC2"
        },
        {
            "bufferView" : 7,
            "componentType" : 5123,
            "count" : 1296,
            "type" : "SCALAR"
        },
        {
            "bufferView" : 8,
            "componentType" : 5126,
            "count" : 630,
            "max" : [
                3.673468828201294,
                4.377290725708008,
                1.5700769424438477
            ],
            "min" : [
                -3.9949121475219727,
                -3.0752272605895996,
                -2.5653634071350098
            ],
            "type" : "VEC3"
        },
        {
            "bufferView" : 9,
            "componentType" : 5126,
            "count" : 630,
            "type" : "VEC3"
        },
        {
            "bufferView" : 10,
            "componentType" : 5126,
            "count" : 630,
            "type" : "VEC2"
        },
        {
            "bufferView" : 11,
            "componentType" : 5126,
            "count" : 630,
            "type" : "VEC2"
        },
        {
            "bufferView" : 12,
            "componentType" : 5123,
            "count" : 1194,
            "type" : "SCALAR"
        },
        {
            "bufferView" : 13,
            "componentType" : 5126,
            "count" : 686,
            "max" : [
                3.0586354732513428,
                6.071416854858398,
                4.798308372497559
            ],
            "min" : [
                -3.5898141860961914,
                -3.075222969055176,
                -1.9454760551452637
            ],
            "type" : "VEC3"
        },
        {
            "bufferView" : 14,
            "componentType" : 5126,
            "count" : 686,
            "type" : "VEC3"
        },
        {
            "bufferView" : 15,
            "componentType" : 5126,
            "count" : 686,
            "type" : "VEC2"
        },
        {
            "bufferView" : 16,
            "componentType" : 5126,
            "count" : 686,
            "type" : "VEC2"
        },
        {
            "bufferView" : 17,
            "componentType" : 5123,
            "count" : 1188,
            "type" : "SCALAR"
        },
        {
            "bufferView" : 18,
            "componentType" : 5126,
            "count" : 1529,
            "max" : [
                9.125818252563477,
                10.119787216186523,
                2.8148980140686035
            ],
            "min" : [
                -9.12582015991211,
                -11.91125202178955,
                -1.3815827369689941
            ],
            "type" : "VEC3"
        },
        {
            "bufferView" : 19,
            "componentType" : 5126,
            "count" : 1529,
            "type" : "VEC3"
        },
        {
            "bufferView" : 20,
            "componentType" : 5126,
            "count" : 1529,
            "type" : "VEC2"
        },
        {
            "bufferView" : 21,
            "componentType" : 5123,
            "count" : 4536,
            "type" : "SCALAR"
        },
        {
            "bufferView" : 22,
            "componentType" : 5126,
            "count" : 417,
            "max" : [
                0.9892815351486206,
                10.917404174804688,
                2.18884015083313
            ],
            "min" : [
                -0.9892838001251221,
                7.608449459075928,
                -0.8034524917602539
            ],
            "type" : "VEC3"
        },
        {
            "bufferView" : 23,
            "componentType" : 5126,
            "count" : 417,
            "type" : "VEC3"
        },
        {
            "bufferView" : 24,
            "componentType" : 5126,
            "count" : 417,
            "type" : "VEC2"
        },
        {
            "bufferView" : 25,
            "componentType" : 5123,
            "count" : 1386,
            "type" : "SCALAR"
        },
        {
            "bufferView" : 26,
            "componentType" : 5126,
            "count" : 496,
            "max" : [
                3.8506503105163574,
                7.453894138336182,
                2.4782042503356934
            ],
            "min" : [
                -3.8273122310638428,
                0.528873860836029,
                -1.19089674949646
            ],
            "type" : "VEC3"
        },
        {
            "bufferView" : 27,
            "componentType" : 5126,
            "count" : 496,
            "type" : "VEC3"
        },
        {
            "bufferView" : 28,
            "componentType" : 5126,
            "count" : 496,
            "type" : "VEC2"
        },
        {
            "bufferView" : 29,
            "componentType" : 5123,
            "count" : 1776,
            "type" : "SCALAR"
        },
        {
            "bufferView" : 30,
            "componentType" : 5126,
            "count" : 266,
            "max" : [
                3.030193567276001,
                1.1856523752212524,
                2.3040876388549805
            ],
            "min" : [
                -3.0432698726654053,
                -5.454146862030029,
                -1.1400820016860962
            ],
            "type" : "VEC3"
        },
        {
            "bufferView" : 31,
            "componentType" : 5126,
            "count" : 266,
            "type" : "VEC3"
        },
        {
            "bufferView" : 32,
            "componentType" : 5126,
            "count" : 266,
            "type" : "VEC2"
        },
        {
            "bufferView" : 33,
            "componentType" : 5123,
            "count" : 864,
            "type" : "SCALAR"
        },
        {
            "bufferView" : 34,
            "componentType" : 5126,
            "count" : 402,
            "max" : [
                0.43246376514434814,
                10.312694549560547,
                0.32022956013679504
            ],
            "min" : [
                -0.44122210144996643,
                -10.111945152282715,
                -0.3220524191856384
            ],
            "type" : "VEC3"
        },
        {
            "bufferView" : 35,
            "componentType" : 5126,
            "count" : 402,
            "type" : "VEC3"
        },
        {
            "bufferView" : 36,
            "componentType" : 5126,
            "count" : 402,
            "type" : "VEC2"
        },
        {
            "bufferView" : 37,
            "componentType" : 5123,
            "count" : 1440,
            "type" : "SCALAR"
        },
        {
            "bufferView" : 38,
            "componentType" : 5126,
            "count" : 180,
            "max" : [
                0.4082827866077423,
                7.236733436584473,
                0.26145118474960327
            ],
            "min" : [
                -0.44122210144996643,
                -8.990100860595703,
                -0.2607010006904602
            ],
            "type" : "VEC3"
        },
        {
            "bufferView" : 39,
            "componentType" : 5126,
            "count" : 180,
            "type" : "VEC3"
        },
        {
            "bufferView" : 40,
            "componentType" : 5126,
            "count" : 180,
            "type" : "VEC2"
        },
        {
            "bufferView" : 41,
            "componentType" : 5123,
            "count" : 480,
            "type" : "SCALAR"
        }
    ],
    "bufferViews" : [
        {
            "buffer" : 0,
            "byteLength" : 5100,
            "byteOffset" : 0
        },
        {
            "buffer" : 0,
            "byteLength" : 5100,
            "byteOffset" : 5100
        },
        {
            "buffer" : 0,
            "byteLength" : 3400,
            "byteOffset" : 10200
        },
        {
            "buffer" : 0,
            "byteLength" : 3456,
            "byteOffset" : 13600
        },
        {
            "buffer" : 0,
            "byteLength" : 5376,
            "byteOffset" : 17056
        },
        {
            "buffer" : 0,
            "byteLength" : 5376,
            "byteOffset" : 22432
        },
        {
            "buffer" : 0,
            "byteLength" : 3584,
            "byteOffset" : 27808
        },
        {
            "buffer" : 0,
            "byteLength" : 2592,
            "byteOffset" : 31392
        },
        {
            "buffer" : 0,
            "byteLength" : 7560,
            "byteOffset" : 33984
        },
        {
            "buffer" : 0,
            "byteLength" : 7560,
            "byteOffset" : 41544
        },
        {
            "buffer" : 0,
            "byteLength" : 5040,
            "byteOffset" : 49104
        },
        {
            "buffer" : 0,
            "byteLength" : 5040,
            "byteOffset" : 54144
        },
        {
            "buffer" : 0,
            "byteLength" : 2388,
            "byteOffset" : 59184
        },
        {
            "buffer" : 0,
            "byteLength" : 8232,
            "byteOffset" : 61572
        },
        {
            "buffer" : 0,
            "byteLength" : 8232,
            "byteOffset" : 69804
        },
        {
            "buffer" : 0,
            "byteLength" : 5488,
            "byteOffset" : 78036
        },
        {
            "buffer" : 0,
            "byteLength" : 5488,
            "byteOffset" : 83524
        },
        {
            "buffer" : 0,
            "byteLength" : 2376,
            "byteOffset" : 89012
        },
        {
            "buffer" : 0,
            "byteLength" : 18348,
            "byteOffset" : 91388
        },
        {
            "buffer" : 0,
            "byteLength" : 18348,
            "byteOffset" : 109736
        },
        {
            "buffer" : 0,
            "byteLength" : 12232,
            "byteOffset" : 128084
        },
        {
            "buffer" : 0,
            "byteLength" : 9072,
            "byteOffset" : 140316
        },
        {
            "buffer" : 0,
            "byteLength" : 5004,
            "byteOffset" : 149388
        },
        {
            "buffer" : 0,
            "byteLength" : 5004,
            "byteOffset" : 154392
        },
        {
            "buffer" : 0,
            "byteLength" : 3336,
            "byteOffset" : 159396
        },
        {
            "buffer" : 0,
            "byteLength" : 2772,
            "byteOffset" : 162732
        },
        {
            "buffer" : 0,
            "byteLength" : 5952,
            "byteOffset" : 165504
        },
        {
            "buffer" : 0,
            "byteLength" : 5952,
            "byteOffset" : 171456
        },
        {
            "buffer" : 0,
            "byteLength" : 3968,
            "byteOffset" : 177408
        },
        {
            "buffer" : 0,
            "byteLength" : 3552,
            "byteOffset" : 181376
        },
        {
            "buffer" : 0,
            "byteLength" : 3192,
            "byteOffset" : 184928
        },
        {
            "buffer" : 0,
            "byteLength" : 3192,
            "byteOffset" : 188120
        },
        {
            "buffer" : 0,
            "byteLength" : 2128,
            "byteOffset" : 191312
        },
        {
            "buffer" : 0,
            "byteLength" : 1728,
            "byteOffset" : 193440
        },
        {
            "buffer" : 0,
            "byteLength" : 4824,
            "byteOffset" : 195168
        },
        {
            "buffer" : 0,
            "byteLength" : 4824,
            "byteOffset" : 199992
        },
        {
            "buffer" : 0,
            "byteLength" : 3216,
            "byteOffset" : 204816
        },
        {
            "buffer" : 0,
            "byteLength" : 2880,
            "byteOffset" : 208032
        },
        {
            "buffer" : 0,
            "byteLength" : 2160,
            "byteOffset" : 210912
        },
        {
            "buffer" : 0,
            "byteLength" : 2160,
            "byteOffset" : 213072
        },
        {
            "buffer" : 0,
            "byteLength" : 1440,
            "byteOffset" : 215232
        },
        {
            "buffer" : 0,
            "byteLength" : 960,
            "byteOffset" : 216672
        }
    ],
    "buffers" : [
        {
            "byteLength" : 217632,
            "uri" : "hiker.bin"
        }
    ]
}
