{
    "asset" : {
        "generator" : "Khronos glTF Blender I/O v0.9.24",
        "version" : "2.0"
    },
    "scene" : 0,
    "scenes" : [
        {
            "name" : "Scene",
            "nodes" : [
                0,
                1,
                4,
                5
            ]
        }
    ],
    "nodes" : [
        {
            "name" : "Light",
            "rotation" : [
                0.16907575726509094,
                0.7558803558349609,
                -0.27217137813568115,
                0.570947527885437
            ],
            "translation" : [
                3.846660614013672,
                7.947206974029541,
                -1.0054539442062378
            ]
        },
        {
            "name" : "Camera",
            "rotation" : [
                0.483536034822464,
                0.33687159419059753,
                -0.20870360732078552,
                0.7804827094078064
            ],
            "translation" : [
                11.098210334777832,
                9.87118911743164,
                10.069080352783203
            ]
        },
        {
            "mesh" : 0,
            "name" : "Cylinder.001",
            "scale" : [
                0.35274606943130493,
                1.235836148262024,
                0.35274600982666016
            ],
            "translation" : [
                0,
                43.51329040527344,
                0
            ]
        },
        {
            "mesh" : 1,
            "name" : "Cylinder.002",
            "translation" : [
                0,
                20.42975616455078,
                0
            ]
        },
        {
            "children" : [
                2,
                3
            ],
            "mesh" : 2,
            "name" : "Cylinder",
            "rotation" : [
                -0.6509233713150024,
                0.35311761498451233,
                -0.1525757610797882,
                -0.6544672250747681
            ],
            "scale" : [
                0.39809635281562805,
                0.04230532795190811,
                0.39809632301330566
            ],
            "translation" : [
                0.3263905644416809,
                0.26192501187324524,
                -0.6339548230171204
            ]
        },
        {
            "name" : "Light.001",
            "rotation" : [
                0.16907575726509094,
                0.7558803558349609,
                -0.27217137813568115,
                0.570947527885437
            ],
            "translation" : [
                0.09605956077575684,
                7.947206974029541,
                8.372539520263672
            ]
        }
    ],
    "materials" : [
        {
            "doubleSided" : true,
            "name" : "Material.002",
            "pbrMetallicRoughness" : {
                "baseColorFactor" : [
                    0.800000011920929,
                    0.800000011920929,
                    0.800000011920929,
                    1
                ],
                "metallicFactor" : 0,
                "roughnessFactor" : 0.5
            }
        },
        {
            "doubleSided" : true,
            "name" : "Material.003",
            "pbrMetallicRoughness" : {
                "baseColorTexture" : {
                    "index" : 0,
                    "texCoord" : 0
                },
                "metallicFactor" : 0,
                "roughnessFactor" : 0.5
            }
        },
        {
            "doubleSided" : true,
            "name" : "Material",
            "pbrMetallicRoughness" : {
                "baseColorFactor" : [
                    0.30600640177726746,
                    0.437995582818985,
                    0.8000000715255737,
                    1
                ],
                "metallicFactor" : 0,
                "roughnessFactor" : 0.5
            }
        }
    ],
    "meshes" : [
        {
            "name" : "Cylinder.002",
            "primitives" : [
                {
                    "attributes" : {
                        "POSITION" : 0,
                        "NORMAL" : 1,
                        "TEXCOORD_0" : 2
                    },
                    "indices" : 3,
                    "material" : 0
                }
            ]
        },
        {
            "name" : "Cylinder.003",
            "primitives" : [
                {
                    "attributes" : {
                        "POSITION" : 4,
                        "NORMAL" : 5,
                        "TEXCOORD_0" : 6
                    },
                    "indices" : 7,
                    "material" : 1
                }
            ]
        },
        {
            "name" : "Cylinder.001",
            "primitives" : [
                {
                    "attributes" : {
                        "POSITION" : 8,
                        "NORMAL" : 9,
                        "TEXCOORD_0" : 10
                    },
                    "indices" : 11,
                    "material" : 2
                }
            ]
        }
    ],
    "textures" : [
        {
            "source" : 0
        }
    ],
    "images" : [
        {
            "mimeType" : "image/jpeg",
            "name" : "bottle_texture",
            "uri" : "bottle_texture.jpg"
        }
    ],
    "accessors" : [
        {
            "bufferView" : 0,
            "componentType" : 5126,
            "count" : 256,
            "max" : [
                1,
                1.2644456624984741,
                1
            ],
            "min" : [
                -1,
                -1,
                -1
            ],
            "type" : "VEC3"
        },
        {
            "bufferView" : 1,
            "componentType" : 5126,
            "count" : 256,
            "type" : "VEC3"
        },
        {
            "bufferView" : 2,
            "componentType" : 5126,
            "count" : 256,
            "type" : "VEC2"
        },
        {
            "bufferView" : 3,
            "componentType" : 5123,
            "count" : 468,
            "type" : "SCALAR"
        },
        {
            "bufferView" : 4,
            "componentType" : 5126,
            "count" : 384,
            "max" : [
                1.1262009143829346,
                6.945459365844727,
                1.1262010335922241
            ],
            "min" : [
                -1.1262010335922241,
                -6.94548225402832,
                -1.1262010335922241
            ],
            "type" : "VEC3"
        },
        {
            "bufferView" : 5,
            "componentType" : 5126,
            "count" : 384,
            "type" : "VEC3"
        },
        {
            "bufferView" : 6,
            "componentType" : 5126,
            "count" : 384,
            "type" : "VEC2"
        },
        {
            "bufferView" : 7,
            "componentType" : 5123,
            "count" : 576,
            "type" : "SCALAR"
        },
        {
            "bufferView" : 8,
            "componentType" : 5126,
            "count" : 960,
            "max" : [
                1.1035796403884888,
                44.2210693359375,
                1.1035796403884888
            ],
            "min" : [
                -1.1035795211791992,
                -4.227640151977539,
                -1.1035796403884888
            ],
            "type" : "VEC3"
        },
        {
            "bufferView" : 9,
            "componentType" : 5126,
            "count" : 960,
            "type" : "VEC3"
        },
        {
            "bufferView" : 10,
            "componentType" : 5126,
            "count" : 960,
            "type" : "VEC2"
        },
        {
            "bufferView" : 11,
            "componentType" : 5123,
            "count" : 1524,
            "type" : "SCALAR"
        }
    ],
    "bufferViews" : [
        {
            "buffer" : 0,
            "byteLength" : 3072,
            "byteOffset" : 0
        },
        {
            "buffer" : 0,
            "byteLength" : 3072,
            "byteOffset" : 3072
        },
        {
            "buffer" : 0,
            "byteLength" : 2048,
            "byteOffset" : 6144
        },
        {
            "buffer" : 0,
            "byteLength" : 936,
            "byteOffset" : 8192
        },
        {
            "buffer" : 0,
            "byteLength" : 4608,
            "byteOffset" : 9128
        },
        {
            "buffer" : 0,
            "byteLength" : 4608,
            "byteOffset" : 13736
        },
        {
            "buffer" : 0,
            "byteLength" : 3072,
            "byteOffset" : 18344
        },
        {
            "buffer" : 0,
            "byteLength" : 1152,
            "byteOffset" : 21416
        },
        {
            "buffer" : 0,
            "byteLength" : 11520,
            "byteOffset" : 22568
        },
        {
            "buffer" : 0,
            "byteLength" : 11520,
            "byteOffset" : 34088
        },
        {
            "buffer" : 0,
            "byteLength" : 7680,
            "byteOffset" : 45608
        },
        {
            "buffer" : 0,
            "byteLength" : 3048,
            "byteOffset" : 53288
        }
    ],
    "buffers" : [
        {
            "byteLength" : 56336,
            "uri" : "bottle.bin"
        }
    ]
}
