{
    "asset" : {
        "generator" : "Khronos glTF Blender I/O v0.9.24",
        "version" : "2.0"
    },
    "scene" : 0,
    "scenes" : [
        {
            "name" : "Scene",
            "nodes" : [
                2,
                3,
                4,
                5
            ]
        }
    ],
    "nodes" : [
        {
            "mesh" : 0,
            "name" : "Etiqueta",
            "translation" : [
                -0.0006208866834640503,
                0.9927629828453064,
                0.017394322901964188
            ]
        },
        {
            "mesh" : 1,
            "name" : "Tapon",
            "translation" : [
                -0.0018657967448234558,
                2.1896069049835205,
                -0.020601272583007812
            ]
        },
        {
            "children" : [
                0,
                1
            ],
            "mesh" : 2,
            "name" : "Bote",
            "rotation" : [
                -0.7164549827575684,
                -0.0562620647251606,
                -0.07057387381792068,
                0.6917703151702881
            ],
            "scale" : [
                0.2796970307826996,
                0.2796970307826996,
                0.2796969711780548
            ],
            "translation" : [
                -0.0020205844193696976,
                0.18440815806388855,
                -0.15043289959430695
            ]
        },
        {
            "name" : "Lamp",
            "rotation" : [
                0.16907575726509094,
                0.7558803558349609,
                -0.27217137813568115,
                0.570947527885437
            ],
            "translation" : [
                -0.22078323364257812,
                3.3119325637817383,
                3.8172483444213867
            ]
        },
        {
            "name" : "Camera",
            "rotation" : [
                0.483536034822464,
                0.33687159419059753,
                -0.20870360732078552,
                0.7804827094078064
            ],
            "translation" : [
                6.107974052429199,
                4.852749824523926,
                5.134142875671387
            ]
        },
        {
            "name" : "Lamp.001",
            "rotation" : [
                0.16907575726509094,
                0.7558803558349609,
                -0.27217137813568115,
                0.570947527885437
            ],
            "translation" : [
                7.852162837982178,
                7.771073341369629,
                -6.542148590087891
            ]
        }
    ],
    "materials" : [
        {
            "doubleSided" : true,
            "name" : "Material.005",
            "pbrMetallicRoughness" : {
                "baseColorTexture" : {
                    "index" : 0,
                    "texCoord" : 0
                },
                "metallicFactor" : 0,
                "roughnessFactor" : 0.5
            }
        },
        {
            "doubleSided" : true,
            "name" : "Material.004",
            "pbrMetallicRoughness" : {
                "baseColorFactor" : [
                    0.8000000715255737,
                    0.5755685567855835,
                    0.6146025657653809,
                    1
                ],
                "metallicFactor" : 0,
                "roughnessFactor" : 0.5
            }
        },
        {
            "doubleSided" : true,
            "name" : "Material.003",
            "pbrMetallicRoughness" : {
                "baseColorFactor" : [
                    0.800000011920929,
                    0.800000011920929,
                    0.800000011920929,
                    1
                ],
                "metallicFactor" : 0,
                "roughnessFactor" : 0.5
            }
        }
    ],
    "meshes" : [
        {
            "name" : "Cube.001",
            "primitives" : [
                {
                    "attributes" : {
                        "POSITION" : 0,
                        "NORMAL" : 1,
                        "TEXCOORD_0" : 2
                    },
                    "indices" : 3,
                    "material" : 0
                }
            ]
        },
        {
            "name" : "Cylinder",
            "primitives" : [
                {
                    "attributes" : {
                        "POSITION" : 4,
                        "NORMAL" : 5
                    },
                    "indices" : 6,
                    "material" : 1
                }
            ]
        },
        {
            "name" : "Cube",
            "primitives" : [
                {
                    "attributes" : {
                        "POSITION" : 7,
                        "NORMAL" : 8
                    },
                    "indices" : 9,
                    "material" : 2
                }
            ]
        }
    ],
    "textures" : [
        {
            "source" : 0
        }
    ],
    "images" : [
        {
            "mimeType" : "image/jpeg",
            "name" : "texture_sugar",
            "uri" : "texture_sugar.jpg"
        }
    ],
    "accessors" : [
        {
            "bufferView" : 0,
            "componentType" : 5126,
            "count" : 88,
            "max" : [
                1.8278264999389648,
                0.29758214950561523,
                0.9125643968582153
            ],
            "min" : [
                -1.8276169300079346,
                -2.2965803146362305,
                -0.9199886918067932
            ],
            "type" : "VEC3"
        },
        {
            "bufferView" : 1,
            "componentType" : 5126,
            "count" : 88,
            "type" : "VEC3"
        },
        {
            "bufferView" : 2,
            "componentType" : 5126,
            "count" : 88,
            "type" : "VEC2"
        },
        {
            "bufferView" : 3,
            "componentType" : 5123,
            "count" : 132,
            "type" : "SCALAR"
        },
        {
            "bufferView" : 4,
            "componentType" : 5126,
            "count" : 192,
            "max" : [
                0.7886489629745483,
                0.18919438123703003,
                0.7886493802070618
            ],
            "min" : [
                -0.7886491417884827,
                -0.1891946792602539,
                -0.7886488437652588
            ],
            "type" : "VEC3"
        },
        {
            "bufferView" : 5,
            "componentType" : 5126,
            "count" : 192,
            "type" : "VEC3"
        },
        {
            "bufferView" : 6,
            "componentType" : 5123,
            "count" : 372,
            "type" : "SCALAR"
        },
        {
            "bufferView" : 7,
            "componentType" : 5126,
            "count" : 112,
            "max" : [
                2.0016496181488037,
                1.9999144077301025,
                1.0000005960464478
            ],
            "min" : [
                -2.0040359497070312,
                -2.000744581222534,
                -1.0000003576278687
            ],
            "type" : "VEC3"
        },
        {
            "bufferView" : 8,
            "componentType" : 5126,
            "count" : 112,
            "type" : "VEC3"
        },
        {
            "bufferView" : 9,
            "componentType" : 5123,
            "count" : 180,
            "type" : "SCALAR"
        }
    ],
    "bufferViews" : [
        {
            "buffer" : 0,
            "byteLength" : 1056,
            "byteOffset" : 0
        },
        {
            "buffer" : 0,
            "byteLength" : 1056,
            "byteOffset" : 1056
        },
        {
            "buffer" : 0,
            "byteLength" : 704,
            "byteOffset" : 2112
        },
        {
            "buffer" : 0,
            "byteLength" : 264,
            "byteOffset" : 2816
        },
        {
            "buffer" : 0,
            "byteLength" : 2304,
            "byteOffset" : 3080
        },
        {
            "buffer" : 0,
            "byteLength" : 2304,
            "byteOffset" : 5384
        },
        {
            "buffer" : 0,
            "byteLength" : 744,
            "byteOffset" : 7688
        },
        {
            "buffer" : 0,
            "byteLength" : 1344,
            "byteOffset" : 8432
        },
        {
            "buffer" : 0,
            "byteLength" : 1344,
            "byteOffset" : 9776
        },
        {
            "buffer" : 0,
            "byteLength" : 360,
            "byteOffset" : 11120
        }
    ],
    "buffers" : [
        {
            "byteLength" : 11480,
            "uri" : "boxsugar.bin"
        }
    ]
}
