{
    "asset" : {
        "generator" : "Khronos glTF Blender I/O v0.9.24",
        "version" : "2.0"
    },
    "scene" : 0,
    "scenes" : [
        {
            "name" : "Scene",
            "nodes" : [
                0
            ]
        }
    ],
    "nodes" : [
        {
            "mesh" : 0,
            "name" : "Plane.002",
            "rotation" : [
                0.7071067690849304,
                0,
                0,
                0.7071068286895752
            ],
            "scale" : [
                0.4031692445278168,
                0.754313051700592,
                0.30686452984809875
            ]
        }
    ],
    "materials" : [
        {
            "doubleSided" : true,
            "name" : "Material.005",
            "pbrMetallicRoughness" : {
                "baseColorTexture" : {
                    "index" : 0,
                    "texCoord" : 0
                },
                "metallicFactor" : 0,
                "roughnessFactor" : 0.5
            }
        }
    ],
    "meshes" : [
        {
            "name" : "Plane.003",
            "primitives" : [
                {
                    "attributes" : {
                        "POSITION" : 0,
                        "NORMAL" : 1,
                        "TEXCOORD_0" : 2
                    },
                    "indices" : 3,
                    "material" : 0
                }
            ]
        }
    ],
    "textures" : [
        {
            "source" : 0
        }
    ],
    "images" : [
        {
            "mimeType" : "image/jpeg",
            "name" : "newspaper",
            "uri" : "newspaper.jpg"
        }
    ],
    "accessors" : [
        {
            "bufferView" : 0,
            "componentType" : 5126,
            "count" : 145,
            "max" : [
                0.5468466281890869,
                1.6425808668136597,
                0.29619112610816956
            ],
            "min" : [
                -0.6278416514396667,
                -1.6425806283950806,
                -0.5198414325714111
            ],
            "type" : "VEC3"
        },
        {
            "bufferView" : 1,
            "componentType" : 5126,
            "count" : 145,
            "type" : "VEC3"
        },
        {
            "bufferView" : 2,
            "componentType" : 5126,
            "count" : 145,
            "type" : "VEC2"
        },
        {
            "bufferView" : 3,
            "componentType" : 5123,
            "count" : 147,
            "type" : "SCALAR"
        }
    ],
    "bufferViews" : [
        {
            "buffer" : 0,
            "byteLength" : 1740,
            "byteOffset" : 0
        },
        {
            "buffer" : 0,
            "byteLength" : 1740,
            "byteOffset" : 1740
        },
        {
            "buffer" : 0,
            "byteLength" : 1160,
            "byteOffset" : 3480
        },
        {
            "buffer" : 0,
            "byteLength" : 294,
            "byteOffset" : 4640
        }
    ],
    "buffers" : [
        {
            "byteLength" : 4936,
            "uri" : "newspaper-rolled.bin"
        }
    ]
}
