{
    "asset" : {
        "generator" : "Khronos Blender glTF 2.0 I/O",
        "version" : "2.0"
    },
    "scene" : 0,
    "scenes" : [
        {
            "name" : "Scene",
            "nodes" : [
                0,
                1,
                2,
                3
            ]
        }
    ],
    "nodes" : [
        {
            "name" : "Light",
            "rotation" : [
                0.16907575726509094,
                0.7558803558349609,
                -0.27217137813568115,
                0.570947527885437
            ],
            "translation" : [
                4.076245307922363,
                5.903861999511719,
                -1.0054539442062378
            ]
        },
        {
            "name" : "Camera",
            "rotation" : [
                0.483536034822464,
                0.33687159419059753,
                -0.20870360732078552,
                0.7804827094078064
            ],
            "translation" : [
                14.244029998779297,
                13.910992622375488,
                13.146112442016602
            ]
        },
        {
            "mesh" : 0,
            "name" : "Circle",
            "scale" : [
                0.30288630723953247,
                0.30288630723953247,
                0.30288630723953247
            ]
        },
        {
            "name" : "Empty",
            "rotation" : [
                0.7070879936218262,
                -0.005150539334863424,
                -0.005150540731847286,
                0.707088053226471
            ],
            "scale" : [
                9.841601371765137,
                9.841601371765137,
                9.841601371765137
            ],
            "translation" : [
                0,
                4.700000286102295,
                0
            ]
        }
    ],
    "materials" : [
        {
            "name" : "Material.002",
            "pbrMetallicRoughness" : {
                "baseColorFactor" : [
                    0.8688864707946777,
                    0.8688864707946777,
                    0.8688864707946777,
                    1
                ],
                "metallicFactor" : 1,
                "roughnessFactor" : 0
            }
        }
    ],
    "meshes" : [
        {
            "name" : "Circle",
            "primitives" : [
                {
                    "attributes" : {
                        "POSITION" : 0,
                        "NORMAL" : 1,
                        "TEXCOORD_0" : 2
                    },
                    "indices" : 3,
                    "material" : 0
                }
            ]
        }
    ],
    "accessors" : [
        {
            "bufferView" : 0,
            "componentType" : 5126,
            "count" : 1556,
            "max" : [
                0.938360869884491,
                8.100000381469727,
                0.9383607506752014
            ],
            "min" : [
                -0.9383608102798462,
                0,
                -0.938360869884491
            ],
            "type" : "VEC3"
        },
        {
            "bufferView" : 1,
            "componentType" : 5126,
            "count" : 1556,
            "type" : "VEC3"
        },
        {
            "bufferView" : 2,
            "componentType" : 5126,
            "count" : 1556,
            "type" : "VEC2"
        },
        {
            "bufferView" : 3,
            "componentType" : 5123,
            "count" : 2586,
            "type" : "SCALAR"
        }
    ],
    "bufferViews" : [
        {
            "buffer" : 0,
            "byteLength" : 18672,
            "byteOffset" : 0
        },
        {
            "buffer" : 0,
            "byteLength" : 18672,
            "byteOffset" : 18672
        },
        {
            "buffer" : 0,
            "byteLength" : 12448,
            "byteOffset" : 37344
        },
        {
            "buffer" : 0,
            "byteLength" : 5172,
            "byteOffset" : 49792
        }
    ],
    "buffers" : [
        {
            "byteLength" : 54964,
            "uri" : "bottle_wine_2_fixed.bin"
        }
    ]
}
