{
    "asset" : {
        "generator" : "Khronos glTF Blender I/O v0.9.24",
        "version" : "2.0"
    },
    "scene" : 0,
    "scenes" : [
        {
            "name" : "Scene",
            "nodes" : [
                0,
                1,
                2,
                3
            ]
        }
    ],
    "nodes" : [
        {
            "name" : "Light",
            "rotation" : [
                0.16907575726509094,
                0.7558803558349609,
                -0.27217137813568115,
                0.570947527885437
            ],
            "translation" : [
                4.076245307922363,
                5.903861999511719,
                -1.0054539442062378
            ]
        },
        {
            "name" : "Camera",
            "rotation" : [
                0.483536034822464,
                0.33687159419059753,
                -0.20870360732078552,
                0.7804827094078064
            ],
            "translation" : [
                3.2667737007141113,
                2.5167369842529297,
                3.150012254714966
            ]
        },
        {
            "mesh" : 0,
            "name" : "Cylinder",
            "rotation" : [
                0.01132584735751152,
                0.018609317019581795,
                -0.05091874301433563,
                0.9984651803970337
            ],
            "scale" : [
                0.16243517398834229,
                0.0025070318952202797,
                0.16243517398834229
            ],
            "translation" : [
                0.0001522370585007593,
                0.016555093228816986,
                -0.0003383672155905515
            ]
        },
        {
            "mesh" : 1,
            "name" : "Cylinder.001",
            "rotation" : [
                0.21257178485393524,
                0.023720113560557365,
                -0.9739052057266235,
                -0.07588936388492584
            ],
            "scale" : [
                0.16243517398834229,
                0.0025070318952202797,
                0.16243517398834229
            ],
            "translation" : [
                0.14463935792446136,
                0.10628944635391235,
                0.14857642352581024
            ]
        }
    ],
    "materials" : [
        {
            "doubleSided" : true,
            "name" : "Material.001",
            "pbrMetallicRoughness" : {
                "baseColorFactor" : [
                    1,
                    1,
                    1,
                    1
                ],
                "metallicFactor" : 0,
                "roughnessFactor" : 0.5
            }
        },
        {
            "doubleSided" : true,
            "name" : "Material.000",
            "pbrMetallicRoughness" : {
                "baseColorFactor" : [
                    1,
                    1,
                    1,
                    1
                ],
                "metallicFactor" : 0,
                "roughnessFactor" : 0.5
            }
        }
    ],
    "meshes" : [
        {
            "name" : "Cylinder",
            "primitives" : [
                {
                    "attributes" : {
                        "POSITION" : 0,
                        "NORMAL" : 1,
                        "TEXCOORD_0" : 2
                    },
                    "indices" : 3,
                    "material" : 0
                }
            ]
        },
        {
            "name" : "Cylinder.001",
            "primitives" : [
                {
                    "attributes" : {
                        "POSITION" : 4,
                        "NORMAL" : 5,
                        "TEXCOORD_0" : 6
                    },
                    "indices" : 3,
                    "material" : 1
                }
            ]
        }
    ],
    "accessors" : [
        {
            "bufferView" : 0,
            "componentType" : 5126,
            "count" : 396,
            "max" : [
                1.7383135557174683,
                23.002788543701172,
                1.7383135557174683
            ],
            "min" : [
                -1.7383136749267578,
                -2.467607259750366,
                -1.7383135557174683
            ],
            "type" : "VEC3"
        },
        {
            "bufferView" : 1,
            "componentType" : 5126,
            "count" : 396,
            "type" : "VEC3"
        },
        {
            "bufferView" : 2,
            "componentType" : 5126,
            "count" : 396,
            "type" : "VEC2"
        },
        {
            "bufferView" : 3,
            "componentType" : 5123,
            "count" : 660,
            "type" : "SCALAR"
        },
        {
            "bufferView" : 4,
            "componentType" : 5126,
            "count" : 396,
            "max" : [
                1.7383135557174683,
                23.002788543701172,
                1.7383135557174683
            ],
            "min" : [
                -1.7383136749267578,
                -2.467607259750366,
                -1.7383135557174683
            ],
            "type" : "VEC3"
        },
        {
            "bufferView" : 5,
            "componentType" : 5126,
            "count" : 396,
            "type" : "VEC3"
        },
        {
            "bufferView" : 6,
            "componentType" : 5126,
            "count" : 396,
            "type" : "VEC2"
        }
    ],
    "bufferViews" : [
        {
            "buffer" : 0,
            "byteLength" : 4752,
            "byteOffset" : 0
        },
        {
            "buffer" : 0,
            "byteLength" : 4752,
            "byteOffset" : 4752
        },
        {
            "buffer" : 0,
            "byteLength" : 3168,
            "byteOffset" : 9504
        },
        {
            "buffer" : 0,
            "byteLength" : 1320,
            "byteOffset" : 12672
        },
        {
            "buffer" : 0,
            "byteLength" : 4752,
            "byteOffset" : 13992
        },
        {
            "buffer" : 0,
            "byteLength" : 4752,
            "byteOffset" : 18744
        },
        {
            "buffer" : 0,
            "byteLength" : 3168,
            "byteOffset" : 23496
        }
    ],
    "buffers" : [
        {
            "byteLength" : 26664,
            "uri" : "2plates.bin"
        }
    ]
}
