{
    "asset" : {
        "generator" : "Khronos glTF Blender I/O v0.9.24",
        "version" : "2.0"
    },
    "scene" : 0,
    "scenes" : [
        {
            "name" : "Scene",
            "nodes" : [
                0,
                1,
                2,
                3
            ]
        }
    ],
    "nodes" : [
        {
            "name" : "Light",
            "rotation" : [
                0.16907575726509094,
                0.7558803558349609,
                -0.27217137813568115,
                0.570947527885437
            ],
            "translation" : [
                4.076245307922363,
                5.903861999511719,
                -1.0054539442062378
            ]
        },
        {
            "name" : "Camera",
            "rotation" : [
                0.483536034822464,
                0.33687159419059753,
                -0.20870360732078552,
                0.7804827094078064
            ],
            "translation" : [
                8.137935638427734,
                5.441664218902588,
                6.925790786743164
            ]
        },
        {
            "mesh" : 0,
            "name" : "Cylinder",
            "rotation" : [
                0.054997529834508896,
                0,
                0,
                0.9984865188598633
            ],
            "scale" : [
                0.1515711396932602,
                0.08868592977523804,
                0.1515711396932602
            ],
            "translation" : [
                0,
                0.2562280297279358,
                -0.06674006581306458
            ]
        },
        {
            "mesh" : 1,
            "name" : "Plane",
            "scale" : [
                6.301372051239014,
                6.301372051239014,
                6.301372051239014
            ],
            "translation" : [
                0,
                0.0005228519439697266,
                0
            ]
        }
    ],
    "materials" : [
        {
            "doubleSided" : true,
            "name" : "Material.002",
            "pbrMetallicRoughness" : {
                "baseColorFactor" : [
                    0.72304368019104,
                    0.31509634852409363,
                    0.0005268173990771174,
                    1
                ],
                "metallicFactor" : 0,
                "roughnessFactor" : 0.5
            }
        },
        {
            "doubleSided" : true,
            "name" : "Material.003",
            "pbrMetallicRoughness" : {
                "baseColorFactor" : [
                    0.09462518244981766,
                    0.04154842346906662,
                    0.007000970188528299,
                    1
                ],
                "metallicFactor" : 0,
                "roughnessFactor" : 0.5
            }
        },
        {
            "doubleSided" : true,
            "name" : "Material.004",
            "pbrMetallicRoughness" : {
                "baseColorFactor" : [
                    0.07658004760742188,
                    0.06455130875110626,
                    0.00937867071479559,
                    1
                ],
                "metallicFactor" : 0,
                "roughnessFactor" : 0.5
            }
        }
    ],
    "meshes" : [
        {
            "name" : "Cylinder",
            "primitives" : [
                {
                    "attributes" : {
                        "POSITION" : 0,
                        "NORMAL" : 1,
                        "TEXCOORD_0" : 2
                    },
                    "indices" : 3,
                    "material" : 0
                },
                {
                    "attributes" : {
                        "POSITION" : 4,
                        "NORMAL" : 5,
                        "TEXCOORD_0" : 6
                    },
                    "indices" : 7,
                    "material" : 1
                },
                {
                    "attributes" : {
                        "POSITION" : 8,
                        "NORMAL" : 9,
                        "TEXCOORD_0" : 10
                    },
                    "indices" : 11,
                    "material" : 2
                }
            ]
        },
        {
            "name" : "Plane.001",
            "primitives" : [
                {
                    "attributes" : {
                        "POSITION" : 12,
                        "NORMAL" : 13,
                        "TEXCOORD_0" : 14
                    },
                    "indices" : 15
                }
            ]
        }
    ],
    "accessors" : [
        {
            "bufferView" : 0,
            "componentType" : 5126,
            "count" : 365,
            "max" : [
                7.835926055908203,
                2.9655051231384277,
                8.595756530761719
            ],
            "min" : [
                -8.265551567077637,
                -3.595405101776123,
                -6.693395614624023
            ],
            "type" : "VEC3"
        },
        {
            "bufferView" : 1,
            "componentType" : 5126,
            "count" : 365,
            "type" : "VEC3"
        },
        {
            "bufferView" : 2,
            "componentType" : 5126,
            "count" : 365,
            "type" : "VEC2"
        },
        {
            "bufferView" : 3,
            "componentType" : 5123,
            "count" : 549,
            "type" : "SCALAR"
        },
        {
            "bufferView" : 4,
            "componentType" : 5126,
            "count" : 43,
            "max" : [
                -0.02132323384284973,
                3.133601665496826,
                0.0977632999420166
            ],
            "min" : [
                -0.3841899037361145,
                1.2414250373840332,
                -1.6086819171905518
            ],
            "type" : "VEC3"
        },
        {
            "bufferView" : 5,
            "componentType" : 5126,
            "count" : 43,
            "type" : "VEC3"
        },
        {
            "bufferView" : 6,
            "componentType" : 5126,
            "count" : 43,
            "type" : "VEC2"
        },
        {
            "bufferView" : 7,
            "componentType" : 5123,
            "count" : 69,
            "type" : "SCALAR"
        },
        {
            "bufferView" : 8,
            "componentType" : 5126,
            "count" : 12,
            "max" : [
                7.478816032409668,
                -2.279254913330078,
                -2.4422786235809326
            ],
            "min" : [
                -7.992186069488525,
                -3.592014789581299,
                -6.698696136474609
            ],
            "type" : "VEC3"
        },
        {
            "bufferView" : 9,
            "componentType" : 5126,
            "count" : 12,
            "type" : "VEC3"
        },
        {
            "bufferView" : 10,
            "componentType" : 5126,
            "count" : 12,
            "type" : "VEC2"
        },
        {
            "bufferView" : 11,
            "componentType" : 5123,
            "count" : 18,
            "type" : "SCALAR"
        },
        {
            "bufferView" : 12,
            "componentType" : 5126,
            "count" : 4,
            "max" : [
                1,
                0,
                1
            ],
            "min" : [
                -1,
                0,
                -1
            ],
            "type" : "VEC3"
        },
        {
            "bufferView" : 13,
            "componentType" : 5126,
            "count" : 4,
            "type" : "VEC3"
        },
        {
            "bufferView" : 14,
            "componentType" : 5126,
            "count" : 4,
            "type" : "VEC2"
        },
        {
            "bufferView" : 15,
            "componentType" : 5123,
            "count" : 6,
            "type" : "SCALAR"
        }
    ],
    "bufferViews" : [
        {
            "buffer" : 0,
            "byteLength" : 4380,
            "byteOffset" : 0
        },
        {
            "buffer" : 0,
            "byteLength" : 4380,
            "byteOffset" : 4380
        },
        {
            "buffer" : 0,
            "byteLength" : 2920,
            "byteOffset" : 8760
        },
        {
            "buffer" : 0,
            "byteLength" : 1098,
            "byteOffset" : 11680
        },
        {
            "buffer" : 0,
            "byteLength" : 516,
            "byteOffset" : 12780
        },
        {
            "buffer" : 0,
            "byteLength" : 516,
            "byteOffset" : 13296
        },
        {
            "buffer" : 0,
            "byteLength" : 344,
            "byteOffset" : 13812
        },
        {
            "buffer" : 0,
            "byteLength" : 138,
            "byteOffset" : 14156
        },
        {
            "buffer" : 0,
            "byteLength" : 144,
            "byteOffset" : 14296
        },
        {
            "buffer" : 0,
            "byteLength" : 144,
            "byteOffset" : 14440
        },
        {
            "buffer" : 0,
            "byteLength" : 96,
            "byteOffset" : 14584
        },
        {
            "buffer" : 0,
            "byteLength" : 36,
            "byteOffset" : 14680
        },
        {
            "buffer" : 0,
            "byteLength" : 48,
            "byteOffset" : 14716
        },
        {
            "buffer" : 0,
            "byteLength" : 48,
            "byteOffset" : 14764
        },
        {
            "buffer" : 0,
            "byteLength" : 32,
            "byteOffset" : 14812
        },
        {
            "buffer" : 0,
            "byteLength" : 12,
            "byteOffset" : 14844
        }
    ],
    "buffers" : [
        {
            "byteLength" : 14856,
            "uri" : "banana.bin"
        }
    ]
}
