{
  "asset": {
    "version": "2.0",
    "generator": "THREE.GLTFExporter"
  },
  "scenes": [
    {
      "nodes": [
        1
      ],
      "name": "AuxScene"
    }
  ],
  "scene": 0,
  "nodes": [
    {
      "matrix": [
        100,
        0,
        0,
        0,
        0,
        -0.000016292067961387602,
        -99.99999999999868,
        0,
        0,
        99.99999999999868,
        -0.000016292067961387602,
        0,
        191.7936553955078,
        39.5018424987793,
        -796.9703369140625,
        1
      ],
      "name": "sealion",
      "mesh": 0
    },
    {
      "children": [
        0
      ]
    }
  ],
  "bufferViews": [
    {
      "buffer": 0,
      "byteOffset": 0,
      "byteLength": 10872,
      "target": 34962,
      "byteStride": 12
    },
    {
      "buffer": 0,
      "byteOffset": 10872,
      "byteLength": 10872,
      "target": 34962,
      "byteStride": 12
    },
    {
      "buffer": 0,
      "byteOffset": 21744,
      "byteLength": 7248,
      "target": 34962,
      "byteStride": 8
    },
    {
      "buffer": 0,
      "byteOffset": 28992,
      "byteLength": 1812,
      "target": 34963
    }
  ],
  "buffers": [
    {
      "byteLength": 30804,
      "uri": "data:application/octet-stream;base64,"
    }
  ],
  "accessors": [
    {
      "bufferView": 0,
      "componentType": 5126,
      "count": 906,
      "max": [
        0.5388416647911072,
        1.0804822444915771,
        0.9927178025245667
      ],
      "min": [
        -0.5388416647911072,
        -0.30334725975990295,
        -0.0251446720212698
      ],
      "type": "VEC3"
    },
    {
      "bufferView": 1,
      "componentType": 5126,
      "count": 906,
      "max": [
        0.9914548397064209,
        0.9981383681297302,
        0.9998779296875
      ],
      "min": [
        -0.9914548397064209,
        -0.9973449110984802,
        -0.9863277077674866
      ],
      "type": "VEC3"
    },
    {
      "bufferView": 2,
      "componentType": 5126,
      "count": 906,
      "max": [
        0.9954755902290344,
        0.832668662071228
      ],
      "min": [
        0.004524549935013056,
        0.004524549935013056
      ],
      "type": "VEC2"
    },
    {
      "bufferView": 3,
      "componentType": 5123,
      "count": 906,
      "max": [
        905
      ],
      "min": [
        0
      ],
      "type": "SCALAR"
    }
  ],
  "materials": [
    {
      "pbrMetallicRoughness": {
        "baseColorFactor": [
          0.31596794724464417,
          0.28827574849128723,
          0.32637423276901245,
          1
        ],
        "metallicFactor": 0.5,
        "roughnessFactor": 0.5,
        "baseColorTexture": {
          "index": 0
        }
      },
      "name": "sealion"
    }
  ],
  "textures": [
    {
      "sampler": 0,
      "source": 0
    }
  ],
  "samplers": [
    {
      "magFilter": 9729,
      "minFilter": 9987
    }
  ],
  "images": [
    {
      "mimeType": "image/png",
      "uri": "data:image/png;base64,"
    }
  ],
  "meshes": [
    {
      "primitives": [
        {
          "mode": 4,
          "attributes": {
            "POSITION": 0,
            "NORMAL": 1,
            "TEXCOORD_0": 2
          },
          "indices": 3,
          "material": 0
        }
      ]
    }
  ]
}