{
    "asset" : {
        "generator" : "Khronos glTF Blender I/O v0.9.24",
        "version" : "2.0"
    },
    "scene" : 0,
    "scenes" : [
        {
            "name" : "Scene",
            "nodes" : [
                0,
                1,
                2,
                3,
                4,
                5
            ]
        }
    ],
    "nodes" : [
        {
            "mesh" : 0,
            "name" : "Cylinder",
            "rotation" : [
                0,
                -0.5351601839065552,
                0,
                0.8447506427764893
            ],
            "scale" : [
                1.024997591972351,
                0.36149507761001587,
                1.024997591972351
            ],
            "translation" : [
                -0.9921697378158569,
                0.8538457155227661,
                1.193123459815979
            ]
        },
        {
            "mesh" : 1,
            "name" : "Cylinder.001",
            "rotation" : [
                0,
                0.7646887898445129,
                0,
                0.6443998217582703
            ],
            "scale" : [
                1.024997591972351,
                0.36149507761001587,
                1.024997591972351
            ],
            "translation" : [
                -0.9983602166175842,
                0.8538457155227661,
                1.1800216436386108
            ]
        },
        {
            "mesh" : 2,
            "name" : "Circle",
            "rotation" : [
                0,
                -0.5351601839065552,
                0,
                0.8447506427764893
            ],
            "translation" : [
                -0.9921697378158569,
                0,
                1.193123459815979
            ]
        },
        {
            "name" : "Lamp",
            "rotation" : [
                0.16907575726509094,
                0.7558803558349609,
                -0.27217137813568115,
                0.570947527885437
            ],
            "translation" : [
                4.076245307922363,
                5.903861999511719,
                -1.0054539442062378
            ]
        },
        {
            "name" : "Camera",
            "rotation" : [
                0.483536034822464,
                0.33687159419059753,
                -0.20870360732078552,
                0.7804827094078064
            ],
            "translation" : [
                5.196630954742432,
                4.991138935089111,
                6.5076398849487305
            ]
        },
        {
            "name" : "Lamp.001",
            "rotation" : [
                0.16907575726509094,
                0.7558803558349609,
                -0.27217137813568115,
                0.570947527885437
            ],
            "translation" : [
                -1.6001853942871094,
                3.889510154724121,
                5.563713550567627
            ]
        }
    ],
    "materials" : [
        {
            "doubleSided" : true,
            "name" : "Material.002",
            "pbrMetallicRoughness" : {
                "baseColorTexture" : {
                    "index" : 0,
                    "texCoord" : 0
                },
                "metallicFactor" : 0,
                "roughnessFactor" : 0.5
            }
        },
        {
            "doubleSided" : true,
            "name" : "Material.001",
            "pbrMetallicRoughness" : {
                "baseColorFactor" : [
                    0.5005183219909668,
                    0.2319299727678299,
                    0.8000000715255737,
                    1
                ],
                "metallicFactor" : 0,
                "roughnessFactor" : 0.5
            }
        }
    ],
    "meshes" : [
        {
            "name" : "Cylinder",
            "primitives" : [
                {
                    "attributes" : {
                        "POSITION" : 0,
                        "NORMAL" : 1,
                        "TEXCOORD_0" : 2
                    },
                    "indices" : 3,
                    "material" : 0
                }
            ]
        },
        {
            "name" : "Cylinder.001",
            "primitives" : [
                {
                    "attributes" : {
                        "POSITION" : 4,
                        "NORMAL" : 5,
                        "TEXCOORD_0" : 6
                    },
                    "indices" : 3,
                    "material" : 0
                }
            ]
        },
        {
            "name" : "Circle.001",
            "primitives" : [
                {
                    "attributes" : {
                        "POSITION" : 7,
                        "NORMAL" : 8
                    },
                    "indices" : 9,
                    "material" : 1
                }
            ]
        }
    ],
    "textures" : [
        {
            "source" : 0
        }
    ],
    "images" : [
        {
            "mimeType" : "image/jpeg",
            "name" : "texture_water",
            "uri" : "texture_water.jpg"
        }
    ],
    "accessors" : [
        {
            "bufferView" : 0,
            "componentType" : 5126,
            "count" : 152,
            "max" : [
                1,
                0.9973024129867554,
                0.7071067690849304
            ],
            "min" : [
                0.4855692386627197,
                -0.9962685108184814,
                -0.8314695954322815
            ],
            "type" : "VEC3"
        },
        {
            "bufferView" : 1,
            "componentType" : 5126,
            "count" : 152,
            "type" : "VEC3"
        },
        {
            "bufferView" : 2,
            "componentType" : 5126,
            "count" : 152,
            "type" : "VEC2"
        },
        {
            "bufferView" : 3,
            "componentType" : 5123,
            "count" : 228,
            "type" : "SCALAR"
        },
        {
            "bufferView" : 4,
            "componentType" : 5126,
            "count" : 152,
            "max" : [
                1,
                0.9973024129867554,
                0.7071067690849304
            ],
            "min" : [
                0.4855692386627197,
                -0.9962685108184814,
                -0.8314695954322815
            ],
            "type" : "VEC3"
        },
        {
            "bufferView" : 5,
            "componentType" : 5126,
            "count" : 152,
            "type" : "VEC3"
        },
        {
            "bufferView" : 6,
            "componentType" : 5126,
            "count" : 152,
            "type" : "VEC2"
        },
        {
            "bufferView" : 7,
            "componentType" : 5126,
            "count" : 1282,
            "max" : [
                1.0989999771118164,
                2.0759263038635254,
                1.935417652130127
            ],
            "min" : [
                -1.0989999771118164,
                -0.015171341598033905,
                -2.425816059112549
            ],
            "type" : "VEC3"
        },
        {
            "bufferView" : 8,
            "componentType" : 5126,
            "count" : 1282,
            "type" : "VEC3"
        },
        {
            "bufferView" : 9,
            "componentType" : 5123,
            "count" : 2088,
            "type" : "SCALAR"
        }
    ],
    "bufferViews" : [
        {
            "buffer" : 0,
            "byteLength" : 1824,
            "byteOffset" : 0
        },
        {
            "buffer" : 0,
            "byteLength" : 1824,
            "byteOffset" : 1824
        },
        {
            "buffer" : 0,
            "byteLength" : 1216,
            "byteOffset" : 3648
        },
        {
            "buffer" : 0,
            "byteLength" : 456,
            "byteOffset" : 4864
        },
        {
            "buffer" : 0,
            "byteLength" : 1824,
            "byteOffset" : 5320
        },
        {
            "buffer" : 0,
            "byteLength" : 1824,
            "byteOffset" : 7144
        },
        {
            "buffer" : 0,
            "byteLength" : 1216,
            "byteOffset" : 8968
        },
        {
            "buffer" : 0,
            "byteLength" : 15384,
            "byteOffset" : 10184
        },
        {
            "buffer" : 0,
            "byteLength" : 15384,
            "byteOffset" : 25568
        },
        {
            "buffer" : 0,
            "byteLength" : 4176,
            "byteOffset" : 40952
        }
    ],
    "buffers" : [
        {
            "byteLength" : 45128,
            "uri" : "water.bin"
        }
    ]
}
