{
    "asset" : {
        "generator" : "Khronos glTF Blender I/O v0.9.24",
        "version" : "2.0"
    },
    "scene" : 0,
    "scenes" : [
        {
            "name" : "Scene",
            "nodes" : [
                0,
                1,
                2,
                3
            ]
        }
    ],
    "nodes" : [
        {
            "mesh" : 0,
            "name" : "Circle",
            "rotation" : [
                -0.3420875072479248,
                -0.40906381607055664,
                0.5562629699707031,
                0.637349545955658
            ],
            "scale" : [
                0.23420581221580505,
                0.4949566423892975,
                0.4018872082233429
            ],
            "translation" : [
                0.174965500831604,
                0.16385500133037567,
                0.48708081245422363
            ]
        },
        {
            "name" : "Lamp",
            "rotation" : [
                0.16907575726509094,
                0.7558803558349609,
                -0.27217137813568115,
                0.570947527885437
            ],
            "translation" : [
                4.076245307922363,
                5.903861999511719,
                -1.0054539442062378
            ]
        },
        {
            "name" : "Camera",
            "rotation" : [
                0.483536034822464,
                0.33687159419059753,
                -0.20870360732078552,
                0.7804827094078064
            ],
            "translation" : [
                5.196630954742432,
                4.991138935089111,
                6.5076398849487305
            ]
        },
        {
            "name" : "Lamp.001",
            "rotation" : [
                0.16907575726509094,
                0.7558803558349609,
                -0.27217137813568115,
                0.570947527885437
            ],
            "translation" : [
                -1.6001853942871094,
                3.889510154724121,
                5.563713550567627
            ]
        }
    ],
    "materials" : [
        {
            "doubleSided" : true,
            "name" : "Material.001",
            "pbrMetallicRoughness" : {
                "baseColorFactor" : [
                    0.5005183219909668,
                    0.2319299727678299,
                    0.8000000715255737,
                    1
                ],
                "metallicFactor" : 0,
                "roughnessFactor" : 0.5
            }
        }
    ],
    "meshes" : [
        {
            "name" : "Circle.001",
            "primitives" : [
                {
                    "attributes" : {
                        "POSITION" : 0,
                        "NORMAL" : 1
                    },
                    "indices" : 2,
                    "material" : 0
                }
            ]
        }
    ],
    "accessors" : [
        {
            "bufferView" : 0,
            "componentType" : 5126,
            "count" : 1282,
            "max" : [
                1.0989999771118164,
                2.0759263038635254,
                1.935417652130127
            ],
            "min" : [
                -1.0989999771118164,
                -0.015171341598033905,
                -2.425816059112549
            ],
            "type" : "VEC3"
        },
        {
            "bufferView" : 1,
            "componentType" : 5126,
            "count" : 1282,
            "type" : "VEC3"
        },
        {
            "bufferView" : 2,
            "componentType" : 5123,
            "count" : 2088,
            "type" : "SCALAR"
        }
    ],
    "bufferViews" : [
        {
            "buffer" : 0,
            "byteLength" : 15384,
            "byteOffset" : 0
        },
        {
            "buffer" : 0,
            "byteLength" : 15384,
            "byteOffset" : 15384
        },
        {
            "buffer" : 0,
            "byteLength" : 4176,
            "byteOffset" : 30768
        }
    ],
    "buffers" : [
        {
            "byteLength" : 34944,
            "uri" : "water.bin"
        }
    ]
}
