{
    "asset" : {
        "generator" : "Khronos glTF Blender I/O v0.9.24",
        "version" : "2.0"
    },
    "scene" : 0,
    "scenes" : [
        {
            "name" : "Scene",
            "nodes" : [
                0,
                1,
                3,
                4
            ]
        }
    ],
    "nodes" : [
        {
            "name" : "Light",
            "rotation" : [
                0.16907575726509094,
                0.7558803558349609,
                -0.27217137813568115,
                0.570947527885437
            ],
            "translation" : [
                4.076245307922363,
                5.903861999511719,
                -1.0054539442062378
            ]
        },
        {
            "name" : "Camera",
            "rotation" : [
                0.483536034822464,
                0.33687159419059753,
                -0.20870360732078552,
                0.7804827094078064
            ],
            "translation" : [
                14.244029998779297,
                13.910992622375488,
                13.146112442016602
            ]
        },
        {
            "mesh" : 0,
            "name" : "Cylinder",
            "scale" : [
                0.978893518447876,
                1.158915638923645,
                0.978893518447876
            ],
            "translation" : [
                0,
                3.0620527267456055,
                0
            ]
        },
        {
            "children" : [
                2
            ],
            "mesh" : 1,
            "name" : "Circle",
            "rotation" : [
                -0.6728565692901611,
                0,
                0,
                0.7397729754447937
            ],
            "scale" : [
                0.19657789170742035,
                0.19657789170742035,
                0.19657789170742035
            ],
            "translation" : [
                -0.04732425883412361,
                0.2116217166185379,
                0.6548925638198853
            ]
        },
        {
            "name" : "Empty",
            "rotation" : [
                0.7070879936218262,
                -0.005150539334863424,
                -0.005150540731847286,
                0.707088053226471
            ],
            "scale" : [
                9.841601371765137,
                9.841601371765137,
                9.841601371765137
            ],
            "translation" : [
                0,
                4.700000286102295,
                0
            ]
        }
    ],
    "materials" : [
        {
            "doubleSided" : true,
            "name" : "Material.003",
            "pbrMetallicRoughness" : {
                "baseColorTexture" : {
                    "index" : 0,
                    "texCoord" : 0
                },
                "metallicFactor" : 0,
                "roughnessFactor" : 0.5
            }
        },
        {
            "doubleSided" : true,
            "name" : "Material.004",
            "pbrMetallicRoughness" : {
                "baseColorFactor" : [
                    0.035279110074043274,
                    0.10247394442558289,
                    0,
                    1
                ],
                "metallicFactor" : 1,
                "roughnessFactor" : 0.5
            }
        }
    ],
    "meshes" : [
        {
            "name" : "Cylinder",
            "primitives" : [
                {
                    "attributes" : {
                        "POSITION" : 0,
                        "NORMAL" : 1,
                        "TEXCOORD_0" : 2
                    },
                    "indices" : 3,
                    "material" : 0
                }
            ]
        },
        {
            "name" : "Circle",
            "primitives" : [
                {
                    "attributes" : {
                        "POSITION" : 4,
                        "NORMAL" : 5,
                        "TEXCOORD_0" : 6
                    },
                    "indices" : 7,
                    "material" : 1
                }
            ]
        }
    ],
    "textures" : [
        {
            "source" : 0
        }
    ],
    "images" : [
        {
            "mimeType" : "image/jpeg",
            "name" : "texture_wine",
            "uri" : "texture_wine.jpg"
        }
    ],
    "accessors" : [
        {
            "bufferView" : 0,
            "componentType" : 5126,
            "count" : 156,
            "max" : [
                0.9898214340209961,
                1,
                0.9594930410385132
            ],
            "min" : [
                -0.9898214936256409,
                -1,
                -1
            ],
            "type" : "VEC3"
        },
        {
            "bufferView" : 1,
            "componentType" : 5126,
            "count" : 156,
            "type" : "VEC3"
        },
        {
            "bufferView" : 2,
            "componentType" : 5126,
            "count" : 156,
            "type" : "VEC2"
        },
        {
            "bufferView" : 3,
            "componentType" : 5123,
            "count" : 264,
            "type" : "SCALAR"
        },
        {
            "bufferView" : 4,
            "componentType" : 5126,
            "count" : 1556,
            "max" : [
                0.938360869884491,
                8.100000381469727,
                0.9383607506752014
            ],
            "min" : [
                -0.9383608102798462,
                0,
                -0.938360869884491
            ],
            "type" : "VEC3"
        },
        {
            "bufferView" : 5,
            "componentType" : 5126,
            "count" : 1556,
            "type" : "VEC3"
        },
        {
            "bufferView" : 6,
            "componentType" : 5126,
            "count" : 1556,
            "type" : "VEC2"
        },
        {
            "bufferView" : 7,
            "componentType" : 5123,
            "count" : 2586,
            "type" : "SCALAR"
        }
    ],
    "bufferViews" : [
        {
            "buffer" : 0,
            "byteLength" : 1872,
            "byteOffset" : 0
        },
        {
            "buffer" : 0,
            "byteLength" : 1872,
            "byteOffset" : 1872
        },
        {
            "buffer" : 0,
            "byteLength" : 1248,
            "byteOffset" : 3744
        },
        {
            "buffer" : 0,
            "byteLength" : 528,
            "byteOffset" : 4992
        },
        {
            "buffer" : 0,
            "byteLength" : 18672,
            "byteOffset" : 5520
        },
        {
            "buffer" : 0,
            "byteLength" : 18672,
            "byteOffset" : 24192
        },
        {
            "buffer" : 0,
            "byteLength" : 12448,
            "byteOffset" : 42864
        },
        {
            "buffer" : 0,
            "byteLength" : 5172,
            "byteOffset" : 55312
        }
    ],
    "buffers" : [
        {
            "byteLength" : 60484,
            "uri" : "wine-green.bin"
        }
    ]
}
